<?xml version="1.0" encoding="utf-8"?>
<!-- Generator: Adobe Illustrator 16.0.0, SVG Export Plug-In . SVG Version: 6.00 Build 0)  -->
<!DOCTYPE svg PUBLIC "-//W3C//DTD SVG 1.1//EN" "http://www.w3.org/Graphics/SVG/1.1/DTD/svg11.dtd">
<svg version="1.1" id="Layer_1" xmlns="http://www.w3.org/2000/svg" xmlns:xlink="http://www.w3.org/1999/xlink" x="0px" y="0px"
	 width="30px" height="30px" viewBox="0 0 30 30" enable-background="new 0 0 30 30" xml:space="preserve">
<g>
	<path fill="#33ACB5" d="M25.281,9.753c0,0.213-0.07,0.426-0.213,0.567l-9.572,11.77c-0.142,0.143-0.284,0.284-0.497,0.284
		s-0.354-0.071-0.497-0.284L4.932,10.32C4.79,10.179,4.719,9.966,4.719,9.753S4.79,9.327,4.932,9.186l0.993-1.276
		c0.142-0.142,0.283-0.283,0.496-0.283s0.354,0.071,0.497,0.283L15,17.836l8.084-9.927c0.141-0.142,0.281-0.283,0.494-0.283
		c0.215,0,0.355,0.071,0.498,0.283l1.062,1.276C25.211,9.327,25.281,9.54,25.281,9.753z"/>
</g>
</svg>
