<?xml version="1.0" encoding="utf-8"?>
<!-- Generator: Adobe Illustrator 16.0.0, SVG Export Plug-In . SVG Version: 6.00 Build 0)  -->
<!DOCTYPE svg PUBLIC "-//W3C//DTD SVG 1.1//EN" "http://www.w3.org/Graphics/SVG/1.1/DTD/svg11.dtd">
<svg version="1.1" id="Layer_1" xmlns="http://www.w3.org/2000/svg" xmlns:xlink="http://www.w3.org/1999/xlink" x="0px" y="0px"
	 width="192.756px" height="192.756px" viewBox="0 0 192.756 192.756" enable-background="new 0 0 192.756 192.756"
	 xml:space="preserve">
<g>
	<polygon fill-rule="evenodd" clip-rule="evenodd" fill="#FFFFFF" points="0,0 192.756,0 192.756,192.756 0,192.756 0,0 	"/>
	<path fill-rule="evenodd" clip-rule="evenodd" fill="#FFC20E" d="M4.931,83.109c-0.017,1.771,1.319,3.748,3.232,4.464
		c1.277,0.399,2.998,0.984,5.127-0.744v-2.594c0,0-1.074,0.818-2.212,0.77c-0.824,0.001-1.934-0.324-2-1.896V71.647h3.133
		l0.237-1.903H9.077v-4.347l-6.242,6.25h2.096V83.109L4.931,83.109z"/>
	<path fill-rule="evenodd" clip-rule="evenodd" fill="#FFC20E" d="M113.609,82.483c0.992,1.468,1.112,3.546,0.097,5.11
		c-3.427,4.065-8.05,6.457-11.958,9.964c-0.875,0.797-1.673,1.676-1.594,2.791c0.159,0.877,0.877,1.514,1.594,1.832
		c4.704,1.834,9.806,2.871,14.271,5.262c2.948,1.754,7.413,4.225,6.935,8.449c-0.317,2.074-2.311,3.748-4.225,4.465
		c-5.501,1.436-11.081-0.318-15.863-2.152c-8.37-3.268-15.385-9.566-23.995-12.195c-7.164-1.844-13.83,3.469-19.291,8.527
		l-0.319,0.32c-1.03,1.053-2.489,2.406-2.95,3.906c1.006-0.09,1.979-0.15,2.95-0.158c11.081,0.236,18.415,9.564,28.06,13.311
		c5.022,1.992,11.479,1.275,16.103-0.955c9.485-4.227,18.335-10.285,26.307-18.098c2.869-3.188,5.579-6.455,6.457-10.523
		c0.319-2.549-0.638-5.02-2.87-6.535c-4.942-2.87-10.921-3.427-15.943-6.138c-1.115-0.718-1.728-1.753-1.738-2.967
		c0-1.275,0.463-2.534,1.578-3.331l9.009-6.058c1.594-1.275,3.667-2.791,4.385-4.704c0.398-1.275,0.078-2.629-0.56-3.667
		c-3.589-5.105-10.596-7.54-15.916-5.682c-5.526,1.931-6.908,9.852-10.629,14.691c-1.195,1.594-2.788,3.906-5.102,3.188
		c-0.796-0.398-1.515-1.354-1.754-2.312c-1.435-4.784-1.992-9.964-4.862-14.109c-1.036-1.675-2.71-3.269-4.464-4.146
		c-3.986-2.392-9.406-1.116-12.993,1.435c-6.643,4.27-13.236,10.875-16.842,17.825c-1.729,3.334-3.078,8.532-1.424,11.126
		c3.25,5.103,10.592,6.424,16.19,8.166c1.712,0.533,3.002,1.994,3.775,3.371c2.94-1.246,5.793-4.297,7.069-7.167
		c0.797-1.833,0.797-4.464-0.399-6.218c-4.703-6.058-12.595-6.058-18.653-9.725c-1.275-0.957-2.073-2.472-1.754-4.066
		c0.398-1.276,1.435-2.311,2.551-2.949c2.231-1.356,5.66-0.877,7.732,0.319C85.726,79.461,87.32,93.89,87.64,107.361
		c0,0.504,0.604,1.145,0.956,0.479l13.18-25.492c0.703-1.517,2.41-2.55,3.959-2.966C108.796,78.597,111.924,79.986,113.609,82.483
		L113.609,82.483z"/>
	<path fill-rule="evenodd" clip-rule="evenodd" fill="#FFC20E" d="M149.266,103.152c-4.03,1.447-7.962,2.566-10.131,5.645
		c-1.435,2.152-1.913,5.262-0.797,7.652c1.037,2.154,3.348,3.65,5.558,4.24c3.818,0.848,7.533-0.318,10.655-3.025
		c0.428,0.902,0.799,1.705,1.558,2.701h6.129c-0.993-1.131-1.677-3.361-1.669-5.133V99.895c0.009-4.064-0.581-6.338-2.7-8.875
		c-4.109-3.951-11.703-3.478-16.751,0.094v5.45c2.343-1.976,5.512-3.472,8.62-3.392c1.914,0.08,4.018,1.036,4.813,2.87
		c0.639,1.832-0.03,3.746-1.465,5.102C151.683,102.207,150.876,102.576,149.266,103.152L149.266,103.152z M149.016,106.463
		c1.662-0.697,4.103-1.457,5.535-2.254v7.623c-0.135,2.627-1.434,3.49-2.262,4.219c-1.502,1.291-3.7,1.883-5.675,1.273
		c-1.116-0.557-1.899-1.75-2.298-2.789c-0.637-1.99-0.239-4.256,1.125-5.818C146.332,107.729,147.198,107.227,149.016,106.463
		L149.016,106.463z"/>
	<path fill-rule="evenodd" clip-rule="evenodd" fill="#FFC20E" d="M39.078,78.313c-0.008,1.85-0.3,4.732,2.168,6.251
		c1.913,1.036,5.018,0.479,6.787-1.019l0.016,2.705c-1.428,1.291-6.097,2.933-9.992,0.465c-3.268-2.392-3.905-6.297-3.508-10.204
		c0.479-2.392,1.595-4.942,3.907-6.218c2.95-1.674,7.733-1.435,9.805,1.594c1.117,1.595,1.392,4.493,1.105,6.407L39.078,78.313
		L39.078,78.313z M45.338,75.959c-0.06-2.231-0.227-4.678-2.884-4.678c-2.372,0-3.282,2.352-3.282,4.678H45.338L45.338,75.959z"/>
	<path fill-rule="evenodd" clip-rule="evenodd" fill="#FFC20E" d="M31.002,85.63c0.016-0.002,0.021-11.489,0-11.506
		c0-2.617-1.715-3.958-3.069-4.518c-2.391-0.796-4.973-0.205-6.696,1.436l-0.718,0.647c0.003-0.001,0.002-11.291,0-11.292h-4.384
		v27.499h4.384c0.005,0.021,0.007-12.163,0-12.17c0-1.197,0.479-2.133,1.515-2.85c0.876-0.479,1.993-0.718,3.029-0.399
		c0.957,0.319,1.598,1.059,1.595,3.25v9.354c-0.007,0.783,0.35,2.735,1.541,2.733c-0.013,0.004,3.936,0.021,3.936,0
		C31.329,87.054,31.145,86.627,31.002,85.63L31.002,85.63z"/>
	<path fill-rule="evenodd" clip-rule="evenodd" fill="#FFC20E" d="M166.824,92.54c-0.007-1.436-0.667-2.538-1.424-3.247h5.879
		c0.902,0.028,1.643,1.917,1.643,4.101l0.014,18.992c-0.016,1.93,0.923,3.637,2.789,4.543c1.754,0.797,3.987,0.398,5.421-0.717
		c2.551-2.232,2.83-5.342,2.83-8.449l0.021-18.469h5.924l-0.006,31.78c0,3.688-2.783,8.623-7.016,10.684
		c-5.76,2.701-11.797,2.131-15.873-1.309v-4.75c3.427,2.875,8.685,4.432,13.083,2.23c3.348-1.992,4.733-6.443,3.767-9.969
		c-3.96,3.533-8.246,4.199-11.817,2.557c-2.473-0.957-5.234-4.014-5.234-6.803V92.54L166.824,92.54z"/>
</g>
</svg>
