<?xml version="1.0" encoding="utf-8"?>
<!-- Generator: Adobe Illustrator 16.0.0, SVG Export Plug-In . SVG Version: 6.00 Build 0)  -->
<!DOCTYPE svg PUBLIC "-//W3C//DTD SVG 1.1//EN" "http://www.w3.org/Graphics/SVG/1.1/DTD/svg11.dtd">
<svg version="1.1" id="Layer_1" xmlns="http://www.w3.org/2000/svg" xmlns:xlink="http://www.w3.org/1999/xlink" x="0px" y="0px"
	 width="416.489px" height="285.405px" viewBox="0 0 416.489 285.405" enable-background="new 0 0 416.489 285.405"
	 xml:space="preserve">
<path fill="#FFF100" stroke="#000000" stroke-width="4.765" d="M74.554,255.067L2.461,171.922L11.356,70.25L96.655,2.457
	l317.254,27.757l-22.102,252.61L74.554,255.067z M30.461,136.552c6.25,0.547,11.759-4.077,12.306-10.327
	c0.547-6.25-4.077-11.76-10.326-12.306c-6.25-0.547-11.76,4.076-12.307,10.326S24.211,136.005,30.461,136.552z M31.451,125.236"/>
<path d="M368.098,170.661c0.304-3.492,3.32-6.025,6.828-5.719c3.508,0.305,6.041,3.321,5.736,6.813
	c-0.304,3.492-3.32,6.025-6.828,5.719C370.327,177.169,367.793,174.153,368.098,170.661z M369.118,170.75
	c-0.256,2.95,1.936,5.455,4.806,5.704c2.87,0.25,5.462-1.838,5.719-4.788c0.259-2.966-1.935-5.454-4.806-5.704
	C371.967,165.712,369.376,167.784,369.118,170.75z M376.94,175.03l-1.164-0.102l-1.52-3.41l-1.307-0.114l-0.283,3.252l-1.021-0.089
	l0.614-7.048l2.966,0.258c1.275,0.111,2.391,0.594,2.262,2.077c-0.121,1.387-1.106,1.816-2.05,1.766L376.94,175.03z M373.191,168.63
	l-0.153,1.754l1.085,0.094c0.956,0.083,2.25,0.356,2.333-0.6c0.078-0.893-0.666-1.022-1.511-1.096L373.191,168.63z"/>
<path d="M301.545,157.174l10.078,20.815l1.125,0.098c1.335-2.312,2.529-4.635,4.138-6.822l8.698-11.989l43.298,3.786l-40.036,39.908
	l-2.854,32.636l-37.675-3.295l2.854-32.635l-33.205-46.312L301.545,157.174z"/>
<path d="M259.231,153.476l-3.916,44.787c-1.932,22.092-21.518,30.498-50.12,27.996c-28.603-2.502-46.432-14.18-44.5-36.271
	l3.917-44.787l37.143,3.249l-3.688,42.176c-0.518,5.924-0.704,11.17,9.192,12.036c9.896,0.865,10.624-4.333,11.143-10.257
	l3.688-42.176L259.231,153.476z"/>
<path d="M71.377,136.9l44.845,3.923c20.524,1.796,41.164,7.143,39.634,24.616c-0.58,6.627-5.791,12.749-15.253,14.046l-0.053,0.603
	c11.272,3.92,18.055,10.585,17.264,19.623c-1.362,15.565-22.071,19.116-40.628,17.493l-52.436-4.587L71.377,136.9z M108.05,169.453
	c5.623,0.492,11.984,0.644,12.441-4.578c0.492-5.623-6.712-5.849-12.335-6.341l-2.671-0.233l-0.949,10.845L108.05,169.453z
	 M102.039,197.665l4.358,0.381c6.326,0.554,15.473,1.253,16.018-4.973c0.554-6.327-9.295-7.087-15.481-7.628l-3.796-0.332
	L102.039,197.665z"/>
<path d="M158.072,59.196l71.274,6.231l-1.81,20.686l-32.474-2.839l-0.632,7.23l29.662,2.593l-1.721,19.682l-29.662-2.593
	l-0.65,7.431l33.599,2.938l-1.81,20.686l-72.398-6.33L158.072,59.196z"/>
<path d="M239.967,115.332l1.871,1.277c6.555,4.418,14.576,8.256,23.434,9.03c3.795,0.332,9.937-0.244,10.235-3.658
	c0.299-3.415-4.735-4.158-8.206-4.967l-7.645-1.68c-14.875-3.223-26.975-10.656-25.938-22.505
	c1.572-17.975,25.364-26.013,48.419-23.998c12.09,1.057,23.011,4.137,33.019,9.565l-12.098,18.471
	c-6.326-3.791-13.557-6.953-21.852-7.678c-3.373-0.295-8.373,0.179-8.645,3.292c-0.246,2.812,4.498,3.631,7.406,4.392l8.594,2.168
	c16.078,4.037,27.343,11.295,26.219,24.148c-1.58,18.075-25.418,24.997-48.332,22.993c-13.355-1.167-28.59-5.13-40.162-10.493
	L239.967,115.332z"/>
<path d="M318.139,73.195l80.974,7.08l-2.151,24.603l-21.166-2.559l-4.531,51.816l-38.519-3.368l4.531-51.816l-21.289-1.153
	L318.139,73.195z"/>
<path d="M63.405,50.49l44.845,3.923c20.525,1.795,41.164,7.143,39.634,24.616c-0.58,6.627-5.791,12.749-15.253,14.046l-0.053,0.603
	c11.272,3.92,18.055,10.585,17.264,19.623c-1.362,15.565-22.071,19.116-40.628,17.493l-52.436-4.587L63.405,50.49z M100.078,83.043
	c5.623,0.492,11.984,0.644,12.441-4.578c0.492-5.623-6.712-5.849-12.335-6.341l-2.671-0.234l-0.949,10.845L100.078,83.043z
	 M94.068,111.254l4.358,0.381c6.326,0.554,15.472,1.252,16.017-4.974c0.554-6.326-9.295-7.086-15.481-7.627l-3.796-0.332
	L94.068,111.254z"/>
</svg>
