<?xml version="1.0" encoding="utf-8"?>
<!-- Generator: Adobe Illustrator 16.0.0, SVG Export Plug-In . SVG Version: 6.00 Build 0)  -->
<!DOCTYPE svg PUBLIC "-//W3C//DTD SVG 1.1//EN" "http://www.w3.org/Graphics/SVG/1.1/DTD/svg11.dtd">
<svg version="1.1" id="Layer_1" xmlns="http://www.w3.org/2000/svg" xmlns:xlink="http://www.w3.org/1999/xlink" x="0px" y="0px"
	 width="100px" height="100px" viewBox="0 0 100 100" enable-background="new 0 0 100 100" xml:space="preserve">
<g id="Your_Icon">
	<path fill="#E5E5E5" d="M133,52.816"/>
	<ellipse fill="#E5E5E5" cx="49.926" cy="8.751" rx="6.074" ry="7.751"/>
	<path fill="#E5E5E5" stroke="#000000" d="M48,43"/>
	<path fill="#E5E5E5" d="M50,25.951c-3-5-7-0.951-7-0.951h-1l3-6.049c-2.979-0.888-5.25-1.696-6.318,0.535
		c-0.75,1.567-7.185,15.417-5.934,16.466C33.999,37.001,45,38,45,38v-3l-7-2v-1l3-5c0,0,4.001,6.952,3.001,14.001
		c0,0-8,6.951-2.926,26C46.276,86.533,28.861,94.711,27,95.951c-3,2-2.296,4-2.296,4L50.007,100L50,25.951z M49.966,100
		l25.304-0.049c0,0,0.703-2-2.297-4C71.113,94.711,53.697,86.533,58.9,67c5.072-19.049-2.926-26-2.926-26
		c-1.002-7.049,3-14.001,3-14.001l3,5v1l-6.976,2l-1,3c0,0,11.976-1,13.226-2.048c1.252-1.048-5.185-14.898-5.935-16.465
		c-1.067-2.231-3.339-1.422-6.317-0.535L57.975,25h-1c0,0-4.002-4.049-7,0.951L49.966,100z M47,35l-0.447,0.559l0.645-0.312
		l-0.56,0.446l0.698-0.161l-0.646,0.31l0.716-0.001L46.707,36l0.698,0.158l-0.716-0.001l0.646,0.31l-0.698-0.161l0.56,0.446
		l-0.645-0.312L47,37l-0.559-0.447l0.312,0.646l-0.446-0.56l0.161,0.698l-0.31-0.646l0.001,0.716L46,36.707l-0.158,0.698
		l0.001-0.716l-0.31,0.646l0.161-0.698l-0.446,0.56l0.312-0.646L45,37l0.447-0.559l-0.645,0.312l0.56-0.446l-0.698,0.161l0.646-0.31
		l-0.716,0.001L45.292,36l-0.698-0.158l0.716,0.001l-0.646-0.31l0.698,0.161l-0.56-0.446l0.645,0.312L45,35l0.559,0.447
		l-0.312-0.646l0.446,0.56l-0.161-0.698l0.31,0.646l-0.001-0.716L46,35.292l0.158-0.698l-0.001,0.716l0.31-0.646l-0.161,0.698
		l0.446-0.56l-0.312,0.646L47,35z M52.999,33l-0.392,1.062l0.812-0.79l-0.618,0.949l0.967-0.589l-0.812,0.788l1.074-0.359
		l-0.969,0.586l1.127-0.112l-1.076,0.356l1.123,0.142l-1.125,0.108l1.062,0.388l-1.123-0.145L53.999,36l-1.062-0.391l0.789,0.811
		l-0.949-0.618l0.591,0.966l-0.787-0.813l0.358,1.073l-0.586-0.968l0.11,1.126l-0.356-1.074l-0.142,1.123l-0.108-1.127l-0.389,1.063
		l0.146-1.123L50.999,37l0.392-1.062l-0.812,0.79l0.618-0.949l-0.967,0.589l0.813-0.788l-1.074,0.359l0.968-0.586l-1.126,0.112
		l1.074-0.356l-1.123-0.142l1.126-0.108l-1.062-0.388l1.123,0.145L49.999,34l1.062,0.391l-0.79-0.811l0.95,0.618l-0.591-0.966
		l0.787,0.813l-0.358-1.073l0.586,0.968l-0.11-1.126l0.356,1.074l0.142-1.123l0.108,1.127l0.389-1.063l-0.146,1.123L52.999,33z
		 M48,33l-0.447,0.559l0.645-0.312l-0.56,0.446l0.698-0.161l-0.646,0.31l0.716-0.001L47.707,34l0.698,0.158l-0.716-0.001l0.646,0.31
		l-0.698-0.161l0.56,0.446l-0.645-0.312L48,35l-0.559-0.447l0.312,0.646l-0.446-0.56l0.161,0.698l-0.31-0.646l0.001,0.716L47,34.707
		l-0.158,0.698l0.001-0.716l-0.31,0.646l0.161-0.698l-0.446,0.56l0.312-0.646L46,35l0.447-0.559l-0.645,0.312l0.56-0.446
		l-0.698,0.161l0.646-0.31l-0.716,0.001L46.292,34l-0.698-0.158l0.716,0.001l-0.646-0.31l0.698,0.161l-0.56-0.446l0.645,0.312L46,33
		l0.559,0.447l-0.312-0.646l0.446,0.56l-0.161-0.698l0.31,0.646l-0.001-0.716L47,33.292l0.158-0.698l-0.001,0.716l0.31-0.646
		l-0.161,0.698l0.446-0.56l-0.312,0.646L48,33z M50,31l-0.447,0.559l0.645-0.312l-0.56,0.446l0.698-0.161l-0.646,0.31l0.716-0.001
		L49.707,32l0.698,0.158l-0.716-0.001l0.646,0.31l-0.698-0.161l0.56,0.446l-0.645-0.312L50,33l-0.559-0.447l0.312,0.646l-0.446-0.56
		l0.161,0.698l-0.31-0.646l0.001,0.716L49,32.707l-0.158,0.698l0.001-0.716l-0.31,0.646l0.161-0.698l-0.446,0.56l0.312-0.646L48,33
		l0.447-0.559l-0.645,0.312l0.56-0.446l-0.698,0.161l0.646-0.31l-0.716,0.001L48.292,32l-0.698-0.158l0.716,0.001l-0.646-0.31
		l0.698,0.161l-0.56-0.446l0.645,0.312L48,31l0.559,0.447l-0.312-0.646l0.446,0.56l-0.161-0.698l0.31,0.646l-0.001-0.716L49,31.292
		l0.158-0.698l-0.001,0.716l0.31-0.646l-0.161,0.698l0.446-0.56l-0.312,0.646L50,31z M49.97,35.939l-0.429,0.588l0.641-0.345
		l-0.549,0.478l0.701-0.194l-0.642,0.343l0.727-0.033l-0.702,0.192l0.716,0.13l-0.727,0.031l0.669,0.286l-0.716-0.131l0.589,0.427
		l-0.668-0.288l0.479,0.548l-0.588-0.429l0.345,0.641l-0.478-0.549l0.194,0.701l-0.343-0.642l0.033,0.727l-0.192-0.702l-0.13,0.716
		l-0.031-0.727l-0.286,0.669l0.131-0.716l-0.427,0.589l0.288-0.668l-0.548,0.479l0.429-0.588l-0.641,0.345l0.549-0.478l-0.701,0.194
		l0.642-0.343l-0.727,0.033l0.702-0.192l-0.716-0.13l0.727-0.031l-0.669-0.286l0.716,0.131l-0.589-0.427l0.668,0.288l-0.479-0.548
		l0.588,0.429l-0.345-0.641l0.478,0.549l-0.194-0.701l0.343,0.642l-0.033-0.727l0.192,0.702l0.13-0.716l0.031,0.727l0.286-0.669
		l-0.131,0.716l0.427-0.589l-0.288,0.668L49.97,35.939z M49,35l-0.503,0.056l0.478,0.167l-0.503-0.058l0.429,0.269l-0.478-0.168
		l0.358,0.357l-0.428-0.27l0.27,0.428l-0.357-0.358l0.168,0.478l-0.269-0.429l0.058,0.503l-0.167-0.478L48,36l-0.056-0.503
		l-0.167,0.478l0.058-0.503l-0.27,0.428l0.168-0.478l-0.357,0.358l0.27-0.428l-0.428,0.27l0.358-0.357l-0.478,0.168l0.429-0.269
		l-0.503,0.058l0.478-0.167L47,35l0.503-0.056l-0.478-0.167l0.503,0.058l-0.429-0.269l0.478,0.168l-0.358-0.357l0.428,0.27
		l-0.27-0.428l0.357,0.358l-0.168-0.478l0.269,0.429l-0.058-0.503l0.167,0.478L48,34l0.056,0.503l0.167-0.478l-0.058,0.503
		l0.269-0.429l-0.168,0.478l0.357-0.358l-0.27,0.428l0.428-0.27l-0.358,0.357l0.478-0.168l-0.429,0.269l0.503-0.058l-0.478,0.167
		L49,35z M51.999,32l-0.447,0.559l0.646-0.312l-0.561,0.446l0.697-0.161l-0.646,0.31l0.717-0.001L51.706,33l0.698,0.158h-0.717
		l0.646,0.31l-0.697-0.16l0.562,0.445l-0.646-0.312L52,33.999l-0.561-0.447l0.312,0.644l-0.445-0.56l0.16,0.698l-0.31-0.646
		l0.001,0.716L51,33.707l-0.158,0.698V33.69l-0.31,0.645l0.159-0.697l-0.444,0.56l0.312-0.646L50,34l0.447-0.559l-0.644,0.312
		l0.56-0.446l-0.698,0.161l0.646-0.31l-0.716,0.001L50.292,33l-0.698-0.158h0.715l-0.645-0.31l0.697,0.16l-0.56-0.445l0.645,0.312
		L50,32l0.559,0.447l-0.312-0.645l0.446,0.56l-0.161-0.698l0.31,0.646l-0.001-0.716L51,32.292l0.158-0.698l-0.001,0.715l0.31-0.645
		l-0.16,0.697l0.445-0.56l-0.311,0.645L51.999,32z M51.966,37.235l-0.442,0.438l0.588-0.204l-0.528,0.329l0.62-0.068l-0.59,0.203
		l0.619,0.071l-0.621,0.066l0.589,0.208l-0.619-0.073l0.526,0.333L51.52,38.33l0.44,0.442l-0.526-0.334l0.33,0.529l-0.438-0.443
		l0.203,0.589l-0.328-0.53l0.068,0.62l-0.203-0.59l-0.071,0.62l-0.065-0.62l-0.209,0.588l0.073-0.619l-0.333,0.527l0.209-0.588
		l-0.442,0.44l0.334-0.526l-0.529,0.331l0.443-0.438l-0.589,0.204l0.53-0.329l-0.62,0.068l0.59-0.203l-0.62-0.071l0.62-0.066
		l-0.587-0.21l0.619,0.073l-0.527-0.333l0.588,0.209l-0.44-0.442l0.526,0.334l-0.332-0.529l0.438,0.443l-0.204-0.589l0.329,0.53
		l-0.067-0.62l0.203,0.59l0.071-0.62l0.065,0.62l0.207-0.588l-0.072,0.619l0.333-0.527l-0.209,0.588l0.442-0.44l-0.336,0.526
		L51.966,37.235z M52.999,32l-0.306,0.305l0.406-0.144l-0.365,0.23l0.43-0.05l-0.407,0.143l0.431,0.047l-0.43,0.049l0.407,0.141
		l-0.429-0.048l0.365,0.229l-0.406-0.142l0.306,0.304l-0.364-0.229l0.23,0.364l-0.307-0.305l0.145,0.407l-0.229-0.365l0.049,0.428
		l-0.143-0.407l-0.047,0.429l-0.049-0.429l-0.141,0.408l0.047-0.429l-0.229,0.366l0.143-0.407L51.805,33.2l0.229-0.366l-0.364,0.231
		l0.306-0.305l-0.406,0.144l0.365-0.23l-0.43,0.05l0.407-0.143l-0.431-0.047l0.43-0.049l-0.407-0.141l0.429,0.048l-0.365-0.229
		l0.406,0.142l-0.306-0.304l0.365,0.229l-0.231-0.364l0.307,0.305l-0.145-0.407l0.229,0.365l-0.049-0.428l0.143,0.407l0.047-0.429
		l0.049,0.429l0.141-0.408l-0.047,0.429l0.229-0.366l-0.143,0.407l0.305-0.306l-0.229,0.366L52.999,32z M54.999,33l-0.503,0.056
		l0.479,0.167l-0.504-0.058l0.43,0.269l-0.478-0.168l0.358,0.357l-0.43-0.27l0.271,0.428l-0.356-0.358l0.168,0.478l-0.27-0.429
		l0.059,0.503l-0.168-0.478L53.999,34l-0.056-0.503l-0.168,0.478l0.059-0.503l-0.27,0.428l0.168-0.478l-0.356,0.358l0.271-0.428
		l-0.43,0.27l0.358-0.357l-0.478,0.168l0.43-0.269l-0.504,0.058l0.479-0.167L52.999,33l0.503-0.056l-0.479-0.167l0.504,0.058
		l-0.43-0.269l0.478,0.168l-0.358-0.357l0.43,0.27l-0.271-0.428l0.356,0.358l-0.168-0.478l0.27,0.429l-0.059-0.503l0.168,0.478
		L53.999,32l0.056,0.503l0.168-0.478l-0.059,0.503l0.27-0.429l-0.168,0.478l0.356-0.358l-0.271,0.428l0.43-0.27l-0.358,0.357
		l0.478-0.168l-0.43,0.269l0.504-0.058l-0.479,0.167L54.999,33z M49,34l-0.018,0.291l0.142-0.254l-0.083,0.279l0.195-0.216
		l-0.143,0.253l0.238-0.167L49.136,34.4l0.269-0.11l-0.238,0.167l0.287-0.048l-0.27,0.109l0.291,0.018l-0.287,0.047l0.279,0.082
		l-0.291-0.018l0.254,0.142l-0.279-0.083l0.216,0.195l-0.253-0.143l0.167,0.238l-0.216-0.195l0.11,0.269l-0.167-0.238l0.048,0.287
		l-0.109-0.27l-0.018,0.291l-0.047-0.287L48.8,35.132l0.018-0.291l-0.142,0.254l0.083-0.279l-0.195,0.216l0.143-0.253l-0.238,0.167
		l0.195-0.216l-0.269,0.11l0.238-0.167l-0.287,0.048l0.27-0.109l-0.291-0.018l0.287-0.047l-0.279-0.082l0.291,0.018l-0.254-0.142
		l0.279,0.083l-0.216-0.195l0.253,0.143l-0.167-0.238l0.216,0.195l-0.11-0.269l0.167,0.238l-0.048-0.287l0.109,0.271l0.018-0.291
		l0.047,0.287L49,34z"/>
	<g>
		<g>
			<path fill="#E5E5E5" d="M49.127,3.127c-2.483,0.346-4.256,3.321-5.883,5.044c-2.771,2.936-5.407,6.001-8.057,9.046
				c-5.074,5.832-11.087,12.326-17.272,16.97c-0.579,0.435-0.416,4.493,0.122,4.959c3.974,3.447,6.464,9.211,11.364,11.515
				c1.698,0.799,3.67,1.1,5.424,0.483c1.974-0.693,4.174-2.499,5.865-0.268c-0.293-0.387,0.809-3.754,0.026-4.786
				c-1.187-1.566-2.32-1.387-4.117-0.731c-2.631,0.961-3.645,1.355-6.431,0.611c-5.435-1.451-8.179-8.25-12.254-11.785
				c0.041,1.653,0.082,3.306,0.122,4.959c6.331-4.753,11.761-11.297,17.272-16.97c2.402-2.473,4.562-5.224,6.882-7.777
				c1.8-1.98,4.266-5.924,7.057-6.314C49.826,8.006,49.353,3.096,49.127,3.127L49.127,3.127z"/>
		</g>
	</g>
</g>
</svg>
