<?xml version="1.0" encoding="utf-8"?>
<!-- Generator: Adobe Illustrator 16.0.0, SVG Export Plug-In . SVG Version: 6.00 Build 0)  -->
<!DOCTYPE svg PUBLIC "-//W3C//DTD SVG 1.1//EN" "http://www.w3.org/Graphics/SVG/1.1/DTD/svg11.dtd">
<svg version="1.1" id="Layer_1" xmlns="http://www.w3.org/2000/svg" xmlns:xlink="http://www.w3.org/1999/xlink" x="0px" y="0px"
	 width="500px" height="375px" viewBox="0 0 500 375" enable-background="new 0 0 500 375" xml:space="preserve">
<rect fill="#F5F4F3" width="500" height="375"/>
<g>
	<line fill="none" stroke="#F406E5" stroke-width="2" stroke-miterlimit="10" x1="416.499" y1="495.896" x2="416.5" y2="-55.591"/>
	
		<line fill="none" stroke="#FFDE17" stroke-width="2" stroke-miterlimit="10" x1="354.233" y1="433.631" x2="354.233" y2="-117.857"/>
	
		<line fill="none" stroke="#33ACB5" stroke-width="2" stroke-miterlimit="10" x1="374.989" y1="454.387" x2="374.989" y2="-97.102"/>
	
		<line fill="none" stroke="#80DB2F" stroke-width="2" stroke-miterlimit="10" x1="395.743" y1="475.141" x2="395.744" y2="-76.347"/>
</g>
<g>
	<path fill="#33ACB5" d="M498,2v371H2V2H498 M500,0H0v375h500V0L500,0z"/>
</g>
<g id="Your_Icon">
	<path fill="#949494" d="M172.773,21.211l-70.503-8.159c0,0-29.92,115.286-32.119,152.818c-1.068,18.292,9.219,35.195,19.927,42.437
		c3.812,2.574,11.189,8.436,12.927,10.406c2.775,3.139,3.5,5.562,3.004,9.958c-0.014,0.106,0.021,0.185,0.021,0.276l-9.795,83.854
		c0,0-27.395,1.956-27.611,3.892c-0.229,1.914,0.743,7.146,2.678,7.375l30.288,3.479l30.399,3.525
		c1.922,0.215,4.069-4.646,4.287-6.568c0.222-1.93-26.084-10.088-26.084-10.088l9.914-84.896c0.568-3.855,1.845-5.994,5.043-8.252
		c2.143-1.509,10.662-5.525,14.963-7.176c12.077-4.613,25.938-18.717,29.074-36.761C175.611,140.261,172.773,21.211,172.773,21.211z
		 M116.53,129.933c-5.741,0-10.403-4.66-10.403-10.407c0-5.749,4.659-10.401,10.403-10.401c5.748,0,10.413,4.652,10.413,10.401
		C126.943,125.273,122.278,129.933,116.53,129.933z M132.885,199.826c-5.751,0-10.399-4.666-10.399-10.424
		c0-5.736,4.648-10.408,10.399-10.408c5.751,0,10.406,4.669,10.406,10.408C143.292,195.16,138.632,199.826,132.885,199.826z
		 M143.999,116.912c-3.871,0-7.01-3.137-7.01-7.001c0-3.867,3.139-7.015,7.01-7.015c3.878,0,7.027,3.148,7.027,7.015
		C151.028,113.775,147.876,116.912,143.999,116.912z M159.164,80.673H99.685l12.639-53.59l49.074,5.945L159.164,80.673z"/>
	<path fill="#949494" d="M305.324,343.673c-0.346-1.922-27.893-2.171-27.893-2.171l-14.936-84.137
		c-0.566-3.863,0.051-6.277,2.455-9.371c1.637-2.062,8.637-8.381,12.268-11.184c10.244-7.881,19.467-25.39,17.275-43.564
		c-4.363-36.161-39.143-143.411-41.361-150.21l-0.025-0.209l-0.035,0.01c-0.006-0.042-0.045-0.144-0.045-0.144l-69.872,12.473
		c0,0,4.513,119.005,13.212,155.61c4.228,17.814,18.938,31.053,31.285,34.892c4.386,1.381,13.127,4.866,15.375,6.254
		c3.559,2.206,4.953,4.321,5.743,8.665c0.015,0.097,0.073,0.17,0.088,0.256l14.745,83.125c0,0-25.675,9.754-25.335,11.673
		c0.351,1.903,2.774,6.625,4.703,6.292l30.011-5.374l30.113-5.358C305.025,350.852,305.656,345.57,305.324,343.673z M211.2,196.59
		c0-3.883,3.162-7.018,7.031-7.018c3.865,0,7.021,3.135,7.021,7.018c0,3.863-3.15,7.021-7.021,7.021S211.2,200.453,211.2,196.59z
		 M218.664,137.861c0-5.737,4.647-10.404,10.405-10.404c5.744,0,10.406,4.667,10.406,10.404c0,5.753-4.658,10.409-10.406,10.409
		C223.311,148.27,218.664,143.614,218.664,137.861z M229.057,227.578c-5.752,0-10.406-4.666-10.406-10.426
		c0-5.73,4.654-10.402,10.406-10.402c5.758,0,10.405,4.664,10.405,10.402C239.462,222.912,234.813,227.578,229.057,227.578z
		 M241.612,195.425c-3.857,0-7.006-3.153-7.006-7.011c0-3.887,3.147-7.025,7.006-7.025c3.893,0,7.021,3.141,7.021,7.025
		C248.633,192.271,245.504,195.425,241.612,195.425z M250.615,111.084c0,5.754-4.653,10.421-10.405,10.421
		c-5.743,0-10.399-4.664-10.399-10.421c0-2.114,0.646-4.084,1.726-5.722h-31.472l-2.984-38.876l46.842-8.921l14.871,47.797h-9.902
		C249.986,107,250.615,108.969,250.615,111.084z"/>
</g>
</svg>
