<?xml version="1.0" encoding="utf-8"?>
<!-- Generator: Adobe Illustrator 16.0.0, SVG Export Plug-In . SVG Version: 6.00 Build 0)  -->
<!DOCTYPE svg PUBLIC "-//W3C//DTD SVG 1.1//EN" "http://www.w3.org/Graphics/SVG/1.1/DTD/svg11.dtd">
<svg version="1.1" id="Layer_1" xmlns="http://www.w3.org/2000/svg" xmlns:xlink="http://www.w3.org/1999/xlink" x="0px" y="0px"
	 width="121px" height="40px" viewBox="0 0 121 40" enable-background="new 0 0 121 40" xml:space="preserve">
<g>
	<rect x="1" y="1" fill="none" stroke="#AAAAAA" stroke-width="2" stroke-miterlimit="10" width="38" height="38"/>
	<g enable-background="new    ">
		<path fill="#33ACB5" d="M35.104,18.244c0,1.202-0.331,2.302-0.992,3.301c0.122,0.445,0.183,0.911,0.183,1.397
			c0,1.04-0.257,2.012-0.77,2.916c0.041,0.283,0.061,0.574,0.061,0.87c0,1.364-0.405,2.565-1.215,3.604
			c0.013,1.877-0.561,3.358-1.721,4.445c-1.161,1.087-2.693,1.63-4.597,1.63h-0.729h-1.883c-1.296,0-2.575-0.151-3.837-0.455
			c-1.263-0.304-2.724-0.746-4.384-1.327c-1.566-0.54-2.498-0.81-2.794-0.81H6.593c-0.715,0-1.326-0.253-1.833-0.76
			c-0.506-0.506-0.759-1.116-0.759-1.832v-12.96c0-0.716,0.253-1.326,0.759-1.833c0.506-0.506,1.117-0.759,1.833-0.759h5.549
			c0.486-0.324,1.41-1.37,2.774-3.139c0.783-1.013,1.505-1.877,2.167-2.593c0.324-0.337,0.563-0.914,0.719-1.73
			c0.155-0.817,0.361-1.671,0.618-2.562c0.256-0.891,0.675-1.619,1.255-2.187c0.526-0.499,1.134-0.749,1.823-0.749
			c1.134,0,2.153,0.22,3.058,0.658c0.904,0.438,1.593,1.124,2.065,2.055c0.472,0.932,0.708,2.188,0.708,3.767
			c0,1.256-0.324,2.552-0.972,3.889h3.564c1.404,0,2.619,0.513,3.645,1.538C34.591,15.646,35.104,16.854,35.104,18.244z M8.8,30.84
			c0.256-0.257,0.385-0.561,0.385-0.911c0-0.352-0.128-0.655-0.385-0.911c-0.257-0.257-0.561-0.385-0.911-0.385
			c-0.352,0-0.655,0.128-0.912,0.385c-0.256,0.256-0.385,0.56-0.385,0.911c0,0.351,0.128,0.654,0.385,0.911s0.56,0.385,0.912,0.385
			C8.24,31.225,8.543,31.097,8.8,30.84z M32.513,18.265c0-0.688-0.263-1.293-0.79-1.812c-0.527-0.52-1.127-0.779-1.802-0.779h-7.128
			c0-0.783,0.324-1.859,0.972-3.23c0.648-1.37,0.972-2.453,0.972-3.25c0-1.322-0.216-2.302-0.648-2.936
			c-0.432-0.635-1.296-0.952-2.592-0.952c-0.352,0.352-0.608,0.925-0.77,1.721c-0.162,0.797-0.368,1.645-0.618,2.542
			c-0.25,0.897-0.652,1.637-1.205,2.217c-0.297,0.312-0.817,0.925-1.559,1.843c-0.054,0.068-0.209,0.271-0.466,0.607
			c-0.257,0.338-0.469,0.615-0.638,0.831c-0.169,0.216-0.402,0.503-0.699,0.86c-0.297,0.357-0.567,0.655-0.81,0.891
			c-0.243,0.236-0.503,0.477-0.78,0.719c-0.277,0.243-0.546,0.426-0.81,0.547c-0.263,0.122-0.503,0.183-0.719,0.183h-0.648v12.96
			h0.648c0.175,0,0.388,0.021,0.638,0.061c0.25,0.04,0.472,0.085,0.668,0.132s0.452,0.121,0.77,0.223
			c0.317,0.102,0.553,0.179,0.709,0.232c0.155,0.055,0.395,0.139,0.719,0.254c0.324,0.114,0.52,0.186,0.587,0.212
			c2.849,0.986,5.157,1.479,6.926,1.479h2.45c2.592,0,3.888-1.127,3.888-3.382c0-0.351-0.034-0.729-0.101-1.134
			c0.405-0.216,0.726-0.57,0.962-1.063c0.236-0.492,0.354-0.988,0.354-1.488c0-0.499-0.122-0.965-0.365-1.397
			c0.715-0.675,1.073-1.478,1.073-2.409c0-0.338-0.067-0.712-0.202-1.124c-0.135-0.411-0.304-0.732-0.506-0.962
			c0.432-0.014,0.793-0.331,1.083-0.952C32.368,19.284,32.513,18.737,32.513,18.265z"/>
	</g>
</g>
<rect x="41.5" y="1" fill="none" stroke="#AAAAAA" stroke-width="2" stroke-miterlimit="10" width="38" height="38"/>
<g>
	<rect x="82" y="1" fill="none" stroke="#AAAAAA" stroke-width="2" stroke-miterlimit="10" width="38" height="38"/>
	<g enable-background="new    ">
		<path fill="#33ACB5" d="M114.566,25.418c-1.027,1.025-2.242,1.538-3.646,1.538h-3.563c0.647,1.337,0.971,2.633,0.971,3.889
			c0,1.579-0.236,2.835-0.708,3.767c-0.473,0.931-1.161,1.616-2.065,2.055s-1.924,0.658-3.058,0.658
			c-0.688,0-1.296-0.25-1.823-0.749c-0.58-0.567-0.998-1.296-1.255-2.187c-0.257-0.892-0.463-1.745-0.618-2.562
			c-0.154-0.816-0.395-1.394-0.719-1.73c-0.661-0.716-1.384-1.58-2.166-2.593c-1.364-1.769-2.289-2.814-2.774-3.139h-5.549
			c-0.716,0-1.326-0.253-1.833-0.759c-0.506-0.507-0.759-1.117-0.759-1.833V8.812c0-0.716,0.253-1.326,0.759-1.832
			c0.507-0.507,1.117-0.76,1.833-0.76h5.832c0.297,0,1.229-0.27,2.794-0.81c1.661-0.581,3.122-1.023,4.385-1.327
			c1.262-0.304,2.541-0.455,3.838-0.455h1.883h0.729c1.904,0,3.436,0.543,4.598,1.63c1.16,1.087,1.734,2.568,1.721,4.445
			c0.811,1.039,1.215,2.24,1.215,3.604c0,0.296-0.02,0.587-0.061,0.87c0.513,0.904,0.77,1.876,0.77,2.916
			c0,0.486-0.061,0.952-0.183,1.397c0.661,0.999,0.992,2.099,0.992,3.301C116.104,23.183,115.592,24.392,114.566,25.418z
			 M88.889,8.812c-0.352,0-0.654,0.128-0.911,0.385s-0.385,0.561-0.385,0.911c0,0.352,0.128,0.655,0.385,0.911
			c0.257,0.257,0.56,0.385,0.911,0.385s0.654-0.128,0.912-0.385c0.256-0.256,0.385-0.56,0.385-0.911
			c0-0.351-0.129-0.654-0.385-0.911C89.543,8.94,89.24,8.812,88.889,8.812z M113.077,20.133c-0.29-0.621-0.651-0.938-1.083-0.952
			c0.202-0.229,0.371-0.551,0.506-0.962c0.135-0.412,0.203-0.786,0.203-1.124c0-0.932-0.358-1.734-1.074-2.409
			c0.244-0.433,0.365-0.898,0.365-1.397c0-0.5-0.119-0.996-0.354-1.488c-0.236-0.493-0.558-0.848-0.962-1.063
			c0.067-0.405,0.102-0.783,0.102-1.134c0-2.255-1.297-3.382-3.889-3.382h-2.449c-1.77,0-4.078,0.492-6.926,1.479
			c-0.068,0.026-0.264,0.098-0.588,0.212c-0.324,0.115-0.563,0.199-0.719,0.254c-0.155,0.054-0.392,0.131-0.709,0.232
			c-0.316,0.102-0.573,0.176-0.77,0.223c-0.195,0.047-0.418,0.092-0.668,0.132S93.6,8.812,93.425,8.812h-0.647v12.96h0.647
			c0.216,0,0.456,0.061,0.719,0.183c0.264,0.121,0.533,0.304,0.81,0.547c0.277,0.242,0.537,0.482,0.78,0.719
			c0.243,0.235,0.513,0.533,0.81,0.891s0.53,0.645,0.699,0.86c0.168,0.216,0.381,0.493,0.638,0.831
			c0.257,0.337,0.411,0.539,0.466,0.607c0.742,0.918,1.262,1.531,1.559,1.843c0.554,0.58,0.955,1.319,1.205,2.217
			s0.456,1.745,0.618,2.542c0.161,0.796,0.418,1.369,0.77,1.721c1.296,0,2.159-0.317,2.592-0.952
			c0.432-0.634,0.647-1.613,0.647-2.936c0-0.797-0.324-1.88-0.972-3.25c-0.647-1.371-0.972-2.447-0.972-3.23h7.128
			c0.675,0,1.275-0.26,1.802-0.779c0.527-0.52,0.79-1.124,0.79-1.812C113.513,21.3,113.367,20.753,113.077,20.133z"/>
	</g>
</g>
</svg>
