<?xml version="1.0" encoding="utf-8"?>
<!-- Generator: Adobe Illustrator 16.0.0, SVG Export Plug-In . SVG Version: 6.00 Build 0)  -->
<!DOCTYPE svg PUBLIC "-//W3C//DTD SVG 1.1//EN" "http://www.w3.org/Graphics/SVG/1.1/DTD/svg11.dtd">
<svg version="1.1" id="Layer_1" xmlns="http://www.w3.org/2000/svg" xmlns:xlink="http://www.w3.org/1999/xlink" x="0px" y="0px"
	 width="76.63px" height="99.932px" viewBox="-335.133 256.068 76.63 99.932"
	 enable-background="new -335.133 256.068 76.63 99.932" xml:space="preserve">
<g id="Layer_1_1_">
	<circle fill="#E5E5E5" cx="-277.452" cy="264.202" r="8.134"/>
	<path fill="#E5E5E5" d="M-330.34,283.104l0.617-2.033c0.395-1.381,1.71-4.979,4.993-7.045l-5.413-0.024
		c-2.518-0.01-4.568,2.021-4.58,4.539C-334.734,281.003-332.781,283.01-330.34,283.104z"/>
	<circle fill="#E5E5E5" cx="-312.107" cy="264.296" r="7.924"/>
	<path fill="#E5E5E5" d="M-268.399,274.033l-18.233-0.008l-13.469-0.041c2.334,1.418,4.156,3.806,5.234,7.041l1.285,4.222h6.039
		l-0.01,65.954c0,2.516,2.043,4.559,4.559,4.559c2.522,0,4.562-2.043,4.562-4.559l0.007-38.256h2.029l-0.013,38.256
		c0,2.516,2.043,4.559,4.562,4.559c2.516,0,4.559-2.043,4.559-4.559l0.02-65.956h2v25.933c0,4.889,6.778,4.979,6.765,0.092v-26.142
		C-258.505,279.727-262.081,274.033-268.399,274.033z"/>
</g>
<g id="Layer_2">
	<path fill="#E5E5E5" d="M-305.461,274.352c5.677,0,7.98,4.68,8.838,7.258l6.976,22.923c1.39,4.931-4.884,6.972-6.378,2.167
		l-6.275-21.047h-1.828l9.476,37.438h-8.619v29.188c0,4.977-7.486,4.951-7.486,0v-29.379h-3.053l0.007,29.338
		c0,5.018-7.519,5.018-7.519,0V323.09h-10.053l10.792-37.438h-1.689l-6.276,21.121c-1.494,4.605-7.82,2.713-6.371-2.219
		l6.967-22.945c0.747-2.615,3.033-7.258,8.762-7.258H-305.461L-305.461,274.352z"/>
</g>
</svg>
