<?xml version="1.0" encoding="utf-8"?>
<!-- Generator: Adobe Illustrator 16.0.0, SVG Export Plug-In . SVG Version: 6.00 Build 0)  -->
<!DOCTYPE svg PUBLIC "-//W3C//DTD SVG 1.1//EN" "http://www.w3.org/Graphics/SVG/1.1/DTD/svg11.dtd">
<svg version="1.1" id="Layer_1" xmlns="http://www.w3.org/2000/svg" xmlns:xlink="http://www.w3.org/1999/xlink" x="0px" y="0px"
	 width="192.756px" height="192.756px" viewBox="0 0 192.756 192.756" enable-background="new 0 0 192.756 192.756"
	 xml:space="preserve">
<g>
	<polygon fill-rule="evenodd" clip-rule="evenodd" fill="#FFFFFF" points="0,0 192.756,0 192.756,192.756 0,192.756 0,0 	"/>
	<path fill-rule="evenodd" clip-rule="evenodd" fill="#939598" d="M100.845,108.27l-1.723-2.152c-1.398,1.4-4.52,2.799-6.78,2.799
		c-3.875,0-7.211-2.799-7.211-6.457c0-4.52,4.305-6.996,5.596-7.426c-0.861-1.076-2.367-2.906-2.367-5.166
		c0.107-3.013,1.937-5.381,5.919-5.381c3.444,0,6.027,2.26,6.027,5.596c0,3.767-2.906,5.058-3.767,5.812l2.798,3.981
		c0.753-0.969,1.507-3.336,1.399-3.766h3.767c0,0-0.538,4.734-2.691,6.994l3.982,5.166H100.845L100.845,108.27z M94.387,88.037
		c-1.184,0-2.152,0.969-2.044,1.938c0.107,1.292,1.184,2.152,1.83,3.013c0.861-0.646,2.368-1.506,2.368-2.906
		C96.54,89.006,95.678,88.037,94.387,88.037L94.387,88.037z M92.988,98.047c-3.659,2.475-3.444,4.197-3.444,4.197
		c0,1.721,1.614,2.689,2.798,2.797c1.399,0,3.444-1.184,4.413-2.045L92.988,98.047L92.988,98.047z"/>
	<path fill-rule="evenodd" clip-rule="evenodd" d="M28.629,94.602c-0.861-3.444-3.982-6.242-7.641-6.242
		c-4.628,0-8.072,3.66-7.964,8.072c0.108,4.305,3.444,7.641,7.964,7.641c4.305,0,6.78-3.121,7.318-5.166h4.52
		c-0.969,6.35-7.103,9.688-11.946,9.688c-5.489,0-12.377-4.521-12.377-12.162c0-7.21,5.489-12.592,12.484-12.592
		c5.919,0,11.3,4.52,12.054,10.762H28.629L28.629,94.602z"/>
	<path fill-rule="evenodd" clip-rule="evenodd" d="M65.221,108.379c-3.551,0-4.197-2.584-4.197-3.982v-10.44h-2.26V90.62h2.26
		v-5.166h4.52v5.381h2.906v3.121h-2.906v9.364c0,2.367,2.906,1.613,3.336,1.721v3.338H65.221L65.221,108.379z"/>
	<path fill-rule="evenodd" clip-rule="evenodd" d="M38.315,100.414c0,0.215,0,7.855,0,7.855h-4.413V91.158h4.305v1.722
		c0.646-0.861,1.937-1.83,3.336-2.26c0.969-0.107,1.938,0,1.938,0v4.197C41.221,94.171,38.1,95.14,38.315,100.414L38.315,100.414z"
		/>
	<path fill-rule="evenodd" clip-rule="evenodd" d="M72.217,100.736c0,2.26,2.152,3.982,4.413,3.982c1.614,0,2.583-0.646,3.444-1.938
		h4.628c-0.646,3.014-3.767,5.812-7.856,5.812c-5.274,0-9.041-3.982-9.041-9.578c0-4.306,3.229-8.718,8.502-8.611
		c6.026,0.108,8.717,5.274,8.609,10.332H72.217L72.217,100.736z M76.199,93.957c-1.937-0.108-3.767,1.399-3.767,3.551h7.533
		C79.965,95.355,78.244,93.957,76.199,93.957L76.199,93.957z"/>
	<path fill-rule="evenodd" clip-rule="evenodd" d="M54.889,108.27c0,0.109-0.107-0.645-0.323-1.398
		c-0.753,0.646-2.475,1.938-5.166,1.938c-3.013,0-6.457-1.83-6.457-5.381c0-2.152,1.399-4.951,6.242-5.598
		c2.798-0.43,4.951-0.215,5.058-1.721c0.107-0.539-0.43-2.368-3.229-2.368c-1.291,0-2.906,0.43-3.229,2.476h-3.875
		c0-3.014,1.83-5.597,7.534-5.597c3.552,0,7.103,1.507,7.103,5.382c0,0,0,9.146,0,9.471c0.108,0.969,0.431,2.26,0.753,2.797H54.889
		L54.889,108.27z M46.925,103.32c0.108,1.828,2.475,2.152,2.906,1.936c0,0,2.368,0,3.444-1.184c0.646-0.859,0.969-1.936,0.646-4.305
		C49.616,100.736,46.925,101.168,46.925,103.32L46.925,103.32z"/>
	<polygon fill-rule="evenodd" clip-rule="evenodd" points="179.947,85.239 184.252,85.239 184.252,108.27 179.947,108.27 
		179.947,85.239 	"/>
	<path fill-rule="evenodd" clip-rule="evenodd" d="M157.238,100.521c0,0.215,0,7.748,0,7.748h-4.412V91.266h4.305v1.722
		c0.754-0.861,1.938-1.937,3.337-2.26c1.076-0.215,2.045,0,2.045,0v4.197C160.037,94.279,157.023,95.248,157.238,100.521
		L157.238,100.521z"/>
	<path fill-rule="evenodd" clip-rule="evenodd" d="M146.584,100.521c0,0.215,0,7.748,0,7.748h-4.52V91.266h4.412v1.722
		c0.753-0.861,1.938-1.937,3.336-2.26c0.969-0.215,1.938,0,1.938,0v4.197C149.49,94.279,146.369,95.248,146.584,100.521
		L146.584,100.521z"/>
	<path fill-rule="evenodd" clip-rule="evenodd" d="M166.494,100.844c0,2.152,2.152,3.875,4.413,3.875
		c1.506,0,2.583-0.537,3.443-1.938h4.521c-0.538,3.014-3.659,5.812-7.749,5.812c-5.166,0-9.04-3.982-9.04-9.471
		c0-4.306,3.229-8.718,8.502-8.61c5.919,0,8.718,5.273,8.502,10.331H166.494L166.494,100.844z M170.584,93.957
		c-2.045,0-3.874,1.399-3.874,3.551h7.533C174.243,95.463,172.629,93.957,170.584,93.957L170.584,93.957z"/>
	<path fill-rule="evenodd" clip-rule="evenodd" d="M118.063,108.27c-4.843,0-12.054,0-12.054,0V85.131h10.439
		c3.552,0,7.211,1.614,7.211,5.919c0,3.551-2.798,4.305-3.443,4.843c2.044,0.646,4.305,2.583,4.305,6.351
		C124.521,106.334,120.539,108.27,118.063,108.27L118.063,108.27z M115.48,88.791h-5.165v5.704h4.95c1.076,0,3.659-0.43,3.659-3.121
		C118.925,89.544,117.096,88.791,115.48,88.791L115.48,88.791z M115.48,97.939h-5.165v6.779h5.488c0.754,0,3.659-0.646,3.659-3.121
		C119.463,100.199,119.141,97.939,115.48,97.939L115.48,97.939z"/>
	<path fill-rule="evenodd" clip-rule="evenodd" d="M137.113,108.27c0,0.109-0.215-0.645-0.323-1.398
		c-0.753,0.646-2.476,1.938-5.165,1.938c-3.014,0-6.458-1.83-6.458-5.381c0-2.152,1.399-4.844,6.35-5.598
		c2.583-0.43,4.843-0.215,4.951-1.721c0.107-0.431-0.431-2.261-3.229-2.261c-1.292,0-2.799,0.323-3.122,2.476h-3.981
		c0-3.013,2.045-5.596,7.533-5.596c3.444,0,6.996,1.506,7.104,5.381c0,3.229,0,8.824,0,8.824c0,0.754,0.323,2.691,0.646,3.336
		H137.113L137.113,108.27z M129.688,103.32c0,1.828,2.475,2.152,2.905,1.936c0,0,2.368,0,3.337-1.184
		c0.646-0.859,0.86-1.828,0.646-4.305C132.378,100.844,129.688,101.168,129.688,103.32L129.688,103.32z"/>
</g>
</svg>
