<?xml version="1.0" encoding="utf-8"?>
<!-- Generator: Adobe Illustrator 16.0.0, SVG Export Plug-In . SVG Version: 6.00 Build 0)  -->
<!DOCTYPE svg PUBLIC "-//W3C//DTD SVG 1.1//EN" "http://www.w3.org/Graphics/SVG/1.1/DTD/svg11.dtd">
<svg version="1.1" id="Layer_1" xmlns="http://www.w3.org/2000/svg" xmlns:xlink="http://www.w3.org/1999/xlink" x="0px" y="0px"
	 width="500px" height="375px" viewBox="0 0 500 375" enable-background="new 0 0 500 375" xml:space="preserve">
<rect fill="#F5F4F3" width="500" height="375"/>
<g>
	<line fill="none" stroke="#F406E5" stroke-width="2" stroke-miterlimit="10" x1="500" y1="384" x2="110.04" y2="-5.961"/>
	<line fill="none" stroke="#FFDE17" stroke-width="2" stroke-miterlimit="10" x1="411.943" y1="384" x2="21.982" y2="-5.961"/>
	<line fill="none" stroke="#33ACB5" stroke-width="2" stroke-miterlimit="10" x1="441.297" y1="384" x2="51.335" y2="-5.961"/>
	<line fill="none" stroke="#80DB2F" stroke-width="2" stroke-miterlimit="10" x1="470.647" y1="384" x2="80.688" y2="-5.961"/>
</g>
<g>
	<path fill="#FFDE17" d="M498,2v371H2V2H498 M500,0H0v375h500V0L500,0z"/>
</g>
<g id="Your_Icon">
	<path fill="#949494" d="M485.957,328.226L485.957,328.226v-0.084v-0.082v-0.121v-0.164v-0.047v-0.166v-0.207v-70.92
		c0-6.887,0-35.893,0-41.031c0-7.176,0-10.18,0-20.539c0-61.65,0-154.272,0-164.12c0-20.474-51.338,30.761-51.338,112.824
		c0,41.053,10.266,41.053,10.266,41.053s10.27,10.243,10.27,20.509c0,9.147-8.099,99.472-9.932,119.298v0.045v0.168
		c-0.166,1.17-0.332,2.379-0.332,3.586c0,11.354,9.181,20.539,20.54,20.539C476.688,348.765,485.957,339.58,485.957,328.226
		L485.957,328.226z"/>
	<path fill="#949494" d="M24.311,317.967l10.247-164.128c0,0-20.515,0-20.515-10.27c0-10.227,0-92.289,0-92.289h10.268v61.524
		h10.247V51.28h10.267v61.524H55.07V51.28h10.27v61.524h10.245V51.28h10.268c0,0,0,82.062,0,92.289
		c0,10.27-20.517,10.27-20.517,10.27L75.58,317.967h-0.543c0.354,1.667,0.543,3.382,0.543,5.134
		c0,14.147-11.498,25.664-25.63,25.664c-14.148,0-25.649-11.517-25.649-25.664c0-1.752,0.17-3.467,0.5-5.134H24.311L24.311,317.967z
		"/>
	<path fill="#949494" d="M260.249,61.504c-67.994,0-123.112,55.14-123.112,123.116c0,67.974,55.118,123.115,123.112,123.115
		c68.013,0,123.113-55.146,123.113-123.115C383.362,116.648,328.262,61.504,260.249,61.504L260.249,61.504z"/>
	<path fill="#949494" d="M260.249,317.967c-73.653,0-133.361-59.69-133.361-133.341c0-73.633,59.708-133.338,133.361-133.338
		c73.607,0,133.38,59.706,133.38,133.338C393.629,258.272,333.856,317.967,260.249,317.967L260.249,317.967z M260.249,30.744
		c-84.985,0-153.879,68.912-153.879,153.877c0,84.965,68.894,153.876,153.879,153.876c84.958,0,153.833-68.911,153.833-153.876
		C414.082,99.656,345.207,30.744,260.249,30.744L260.249,30.744z"/>
</g>
</svg>
