<?xml version="1.0" encoding="utf-8"?>
<!-- Generator: Adobe Illustrator 16.0.0, SVG Export Plug-In . SVG Version: 6.00 Build 0)  -->
<!DOCTYPE svg PUBLIC "-//W3C//DTD SVG 1.1//EN" "http://www.w3.org/Graphics/SVG/1.1/DTD/svg11.dtd">
<svg version="1.1" id="Layer_1" xmlns="http://www.w3.org/2000/svg" xmlns:xlink="http://www.w3.org/1999/xlink" x="0px" y="0px"
	 width="500px" height="375px" viewBox="0 0 500 375" enable-background="new 0 0 500 375" xml:space="preserve">
<rect fill="#F5F4F3" width="500" height="375"/>
<g>
	<line fill="none" stroke="#F406E5" stroke-width="2" stroke-miterlimit="10" x1="563.431" y1="350.139" x2="-7.598" y2="350.139"/>
	
		<line fill="none" stroke="#FFDE17" stroke-width="2" stroke-miterlimit="10" x1="498.958" y1="285.666" x2="-72.072" y2="285.665"/>
	<line fill="none" stroke="#33ACB5" stroke-width="2" stroke-miterlimit="10" x1="520.45" y1="307.158" x2="-50.582" y2="307.158"/>
	<line fill="none" stroke="#80DB2F" stroke-width="2" stroke-miterlimit="10" x1="541.94" y1="328.646" x2="-29.09" y2="328.646"/>
</g>
<g>
	<path fill="#FFDE17" d="M498,2v371H2V2H498 M500,0H0v375h500V0L500,0z"/>
</g>
<g id="Layer_x0020_1">
	<path fill="#949494" d="M317.823,13.057c15.68,0,28.393,12.712,28.393,28.394c0,15.683-12.713,28.395-28.393,28.395
		c-15.687,0-28.397-12.712-28.397-28.395C289.426,25.77,302.138,13.057,317.823,13.057z"/>
	<path fill="#949494" d="M284.255,345.164c0,8.785,7.133,15.918,15.911,15.918c8.808,0,15.928-7.133,15.928-15.918l0.019-133.557
		h7.086l-0.043,133.557c0,8.785,7.127,15.918,15.916,15.918c8.79,0,15.915-7.133,15.915-15.918l0.071-230.245h6.98v84.851
		c0,17.07,22.269,17.07,22.217,0v-86.665c0-18.852-11.08-37.334-33.137-37.334l-63.652-0.03c-20.104,0-32.697,16.397-32.697,36.847
		v87.182c0,16.945,22.389,16.945,22.389,0v-84.851h7.129L284.255,345.164L284.255,345.164z"/>
	<path fill="#949494" d="M224.07,99.582c18.236,0,25.638,15.028,28.398,23.317l22.405,73.65c4.468,15.852-15.685,22.41-20.483,6.967
		l-20.167-67.629h-5.868l34.951,120.301h-32.2v93.787c0,15.998-24.054,15.918-24.054,0v-94.402h-9.808l0.021,94.271
		c0,16.129-24.155,16.129-24.155,0l-0.009-93.656h-32.299l34.675-120.301h-5.425L149.89,203.76
		c-4.804,14.791-25.135,8.717-20.477-7.135l22.385-73.732c2.402-8.401,9.752-23.314,28.159-23.314L224.07,99.582L224.07,99.582z"/>
	<ellipse fill="#949494" cx="202.141" cy="67.941" rx="26.135" ry="26.135"/>
	<path fill="#949494" d="M434.701,196.516c11.438,0,16.082,9.428,17.817,14.623l14.056,46.209c2.801,9.93-9.838,14.045-12.854,4.365
		l-12.648-42.422h-3.68l21.919,75.457h-20.19v58.826c0,10.037-15.093,9.986-15.093,0v-59.215h-6.149l0.009,59.139
		c0,10.113-15.153,10.113-15.153,0v-58.75h-20.264l21.751-75.461h-3.398l-12.654,42.574c-3.009,9.275-15.765,5.469-12.843-4.477
		l14.045-46.246c1.503-5.271,6.116-14.625,17.665-14.625h27.665V196.516z"/>
	<ellipse fill="#949494" cx="420.945" cy="176.67" rx="16.395" ry="16.395"/>
	<ellipse fill="#949494" cx="76.874" cy="138.787" rx="19.748" ry="19.748"/>
	<path fill="#949494" d="M53.527,350.01c0,6.111,4.965,11.072,11.07,11.072c6.125,0,11.075-4.961,11.075-11.072l0.013-92.879h4.927
		l-0.03,92.879c0,6.111,4.958,11.072,11.073,11.072c6.116,0,11.069-4.961,11.069-11.072l0.046-160.125h4.855v59.01
		c0,11.867,15.485,11.867,15.451,0v-60.273c0-13.114-7.7-25.963-23.048-25.963l-44.264-0.021c-13.982,0-22.74,11.398-22.74,25.627
		v60.627c0,11.791,15.566,11.791,15.566,0v-59.006h4.961L53.527,350.01L53.527,350.01z"/>
</g>
</svg>
