<?xml version="1.0" encoding="utf-8"?>
<!-- Generator: Adobe Illustrator 16.0.0, SVG Export Plug-In . SVG Version: 6.00 Build 0)  -->
<!DOCTYPE svg PUBLIC "-//W3C//DTD SVG 1.1//EN" "http://www.w3.org/Graphics/SVG/1.1/DTD/svg11.dtd">
<svg version="1.1" xmlns="http://www.w3.org/2000/svg" xmlns:xlink="http://www.w3.org/1999/xlink" x="0px" y="0px" width="50px"
	 height="50px" viewBox="0 0 50 50" enable-background="new 0 0 50 50" xml:space="preserve">
<g id="Layer_1">
	<rect fill="#424242" width="50" height="51"/>
</g>
<g id="Layer_2">
	<g>
		<path fill="#F5F4F3" d="M0,45.523h13.087V23.705H0V45.523z M8.912,43.299c0-0.784,0.631-1.418,1.417-1.418
			c0.784,0,1.417,0.634,1.417,1.418c0,0.792-0.634,1.424-1.417,1.424C9.543,44.723,8.912,44.091,8.912,43.299z"/>
		<path fill="#F5F4F3" d="M43.314,19.967c-3.951-0.856-13.594,0.714-13.594,0.714c2.643-7.218,2.719-11.856,2.105-12.896
			c-0.326-2.486-6.118-7.931-6.637,2.238c-0.672,3.096-1.454,6.567-3.096,8.918c-3.295,4.445-6.865,6.333-6.865,6.333
			s0.068,11.168,0,17.548c2.544,0.185,3.998,1.082,5.196,1.426c8.398,4.008,21.138-0.473,21.138-0.473
			c4.262-0.673,2.752-4.46,2.352-5.32c0.051-0.048,0.096-0.094,0.119-0.139c0.043-0.076,0.037-0.121,0-0.145
			c3.18-1.51,2.764-4.864,1.191-6.098c0.02-0.047,0.02-0.086-0.006-0.107c2.744-1.404,2.15-5.463,0.572-6.023
			C47.607,25.735,50.088,21.08,43.314,19.967z M29.721,7.232c0,0.062-0.004,0.117-0.012,0.179l-0.238,1.346
			c-0.117,0.663-0.746,1.099-1.4,0.983l-1.047-0.187c-0.658-0.12-1.095-0.752-0.977-1.404l0.236-1.35
			c0.02-0.095,0.041-0.183,0.082-0.262c0.209-0.51,0.75-0.82,1.318-0.72l1.053,0.189C29.33,6.113,29.74,6.646,29.721,7.232z"/>
	</g>
</g>
</svg>
