<?xml version="1.0" encoding="utf-8"?>
<!-- Generator: Adobe Illustrator 16.0.0, SVG Export Plug-In . SVG Version: 6.00 Build 0)  -->
<!DOCTYPE svg PUBLIC "-//W3C//DTD SVG 1.1//EN" "http://www.w3.org/Graphics/SVG/1.1/DTD/svg11.dtd">
<svg version="1.1" xmlns="http://www.w3.org/2000/svg" xmlns:xlink="http://www.w3.org/1999/xlink" x="0px" y="0px" width="50px"
	 height="50px" viewBox="0 0 50 50" enable-background="new 0 0 50 50" xml:space="preserve">
<g id="Layer_1">
	<rect fill="#424242" width="50" height="51"/>
</g>
<g id="Layer_2">
	<g>
		<path fill="#F5F4F3" d="M0,26.295h13.087V4.476H0V26.295z M10.329,5.277c0.784,0,1.417,0.632,1.417,1.424
			c0,0.784-0.634,1.418-1.417,1.418c-0.785,0-1.417-0.634-1.417-1.418C8.912,5.909,9.543,5.277,10.329,5.277z"/>
		<path fill="#F5F4F3" d="M45.791,24.057c1.578-0.561,2.172-4.619-0.572-6.024c0.025-0.021,0.025-0.06,0.006-0.107
			c1.572-1.233,1.988-4.587-1.191-6.098c0.037-0.022,0.043-0.067,0-0.145c-0.023-0.045-0.068-0.09-0.119-0.138
			c0.4-0.861,1.91-4.648-2.352-5.32c0,0-12.74-4.481-21.138-0.473c-1.198,0.343-2.651,1.241-5.196,1.426
			c0.068,6.38,0,17.548,0,17.548s3.57,1.888,6.865,6.333c1.642,2.351,2.423,5.822,3.096,8.918c0.519,10.169,6.311,4.725,6.637,2.238
			c0.613-1.04,0.537-5.679-2.105-12.896c0,0,9.643,1.57,13.594,0.714C50.088,28.92,47.607,24.265,45.791,24.057z M28.736,43.992
			l-1.053,0.189c-0.568,0.101-1.109-0.21-1.318-0.72c-0.041-0.079-0.062-0.167-0.082-0.262l-0.236-1.35
			c-0.118-0.652,0.318-1.284,0.977-1.404l1.047-0.187c0.654-0.115,1.283,0.32,1.4,0.983l0.238,1.346
			c0.008,0.062,0.012,0.117,0.012,0.179C29.74,43.354,29.33,43.887,28.736,43.992z"/>
	</g>
</g>
</svg>
