<?xml version="1.0" encoding="utf-8"?>
<!-- Generator: Adobe Illustrator 16.0.0, SVG Export Plug-In . SVG Version: 6.00 Build 0)  -->
<!DOCTYPE svg PUBLIC "-//W3C//DTD SVG 1.1//EN" "http://www.w3.org/Graphics/SVG/1.1/DTD/svg11.dtd">
<svg version="1.1" id="Layer_1" xmlns="http://www.w3.org/2000/svg" xmlns:xlink="http://www.w3.org/1999/xlink" x="0px" y="0px"
	 width="150px" height="150px" viewBox="0 0 150 150" enable-background="new 0 0 150 150" xml:space="preserve">
<g>
	<path fill="#949494" d="M2.506,75.173v4.575h0.428v0.229H0.347v-0.229h0.422v-9.55H0.347v-0.227h3.036
		c0.216,0,0.988-0.044,1.429,0.236c0.48,0.302,0.615,0.713,0.615,1.225v2.375c0,0.249-0.06,0.691-0.531,1.009
		c-0.453,0.297-1.194,0.358-1.805,0.358L2.506,75.173L2.506,75.173z M3.69,70.857c0-0.193,0.011-0.348-0.104-0.486
		c-0.128-0.146-0.305-0.173-0.56-0.173h-0.52v4.757h0.628c0.198,0,0.354-0.066,0.464-0.191c0.124-0.15,0.092-0.382,0.092-0.506
		V70.857z"/>
	<path fill="#949494" d="M18.466,78.583c0,0.903-0.592,1.479-2.184,1.478c-1.705,0-2.167-0.572-2.167-1.478v-6.047
		c0-1.069,0.752-1.624,2.216-1.631c1.405-0.004,2.136,0.697,2.136,1.631L18.466,78.583L18.466,78.583z M16.904,71.769
		c0-0.506-0.19-0.706-0.574-0.698c-0.417,0-0.649,0.182-0.649,0.698v7.441c0,0.38,0.122,0.667,0.592,0.667
		c0.464,0,0.63-0.184,0.63-0.667L16.904,71.769L16.904,71.769z"/>
	<polygon fill="#949494" points="32.357,70.978 32.357,72.789 32.123,72.789 32.123,71.375 30.791,71.375 30.791,79.771 
		31.179,79.771 31.179,79.977 28.849,79.977 28.849,79.771 29.229,79.771 29.229,71.375 27.908,71.375 27.908,72.789 27.675,72.789 
		27.675,70.978 	"/>
	<polygon fill="#949494" points="46.243,70.978 46.243,72.789 46.01,72.789 46.01,71.375 44.682,71.375 44.682,79.771 
		45.065,79.771 45.065,79.977 42.742,79.977 42.742,79.771 43.115,79.771 43.115,71.375 41.795,71.375 41.795,72.789 41.56,72.789 
		41.56,70.978 	"/>
	<polygon fill="#949494" points="57.353,75.19 59.079,75.19 59.079,74.408 59.316,74.408 59.316,76.383 59.079,76.383 
		59.079,75.594 57.353,75.594 57.353,79.573 59.079,79.573 59.079,78.216 59.316,78.216 59.316,79.977 55.399,79.977 55.399,79.771 
		55.792,79.771 55.792,71.178 55.399,71.178 55.399,70.978 59.316,70.978 59.316,72.732 59.079,72.732 59.079,71.375 57.353,71.375 
			"/>
	<path fill="#949494" d="M71.962,75.364c0,0.054,0.582,0.104,0.975,0.368c0.406,0.275,0.448,0.565,0.448,0.968v3.071h0.383v0.205
		h-1.949v-3.6c0-0.277,0.061-0.557-0.211-0.72c-0.166-0.111-0.485-0.091-0.67-0.091H70.41v4.205h0.379v0.205h-2.327v-0.205h0.38
		v-8.594h-0.38v-0.201h2.731c0.192,0,0.888-0.044,1.285,0.21c0.432,0.279,0.554,0.641,0.554,1.098v1.919
		c0,0.093,0.031,0.523-0.319,0.822C72.394,75.311,71.962,75.325,71.962,75.364 M71.469,71.769c0-0.17,0.027-0.299-0.097-0.437
		c-0.134-0.136-0.328-0.154-0.481-0.154H70.41v4.195h0.566c0.177,0,0.318-0.062,0.416-0.175c0.112-0.133,0.077-0.34,0.077-0.454
		L71.469,71.769L71.469,71.769z"/>
	<polygon fill="#949494" points="83.803,76.762 82.177,71.178 81.781,71.178 81.781,70.978 84.113,70.978 84.113,71.178 
		83.734,71.178 85.109,75.916 86.332,71.178 85.943,71.178 85.943,70.978 87.215,70.978 87.215,71.178 86.836,71.178 85.369,76.779 
		85.369,79.771 85.745,79.771 85.745,79.977 83.417,79.977 83.417,79.771 83.803,79.771 	"/>
	<path fill="#949494" d="M101.809,76.268v2.25c0,0.387-0.019,0.664-0.293,0.971c-0.379,0.404-1.162,0.488-1.504,0.488h-3.765v-0.229
		h0.418v-9.55h-0.418v-0.227h3.592c0.447,0,0.786,0.08,1.12,0.333c0.557,0.42,0.5,0.938,0.5,0.945v2.397
		c0,0.012,0.023,0.492-0.333,0.784c-0.462,0.385-0.815,0.403-0.81,0.448c0,0.067,0.643,0.062,1.101,0.449
		C101.691,75.566,101.809,75.811,101.809,76.268 M98.402,79.748h0.933c0.031,0,0.351,0,0.503-0.123
		c0.167-0.139,0.227-0.291,0.227-0.488v-3.535c0-0.148-0.008-0.275-0.102-0.384c-0.105-0.123-0.277-0.157-0.482-0.157h-1.078V79.748
		L98.402,79.748z M98.402,70.198v4.592h0.91c0.031,0,0.223,0.01,0.336-0.112c0.099-0.113,0.074-0.28,0.074-0.366v-3.52
		c0-0.033,0.021-0.365-0.074-0.478c-0.094-0.116-0.489-0.116-0.504-0.116H98.402L98.402,70.198z"/>
	<path fill="#949494" d="M113.402,71.178h-0.389v-0.201h2.406v0.201h-0.436l1.566,8.593h0.385v0.205h-2.354v-0.205h0.328
		l-0.38-2.517h-1.909l-0.519,2.517h0.387v0.205h-1.227v-0.205h0.34L113.402,71.178z M112.676,76.915h1.773l-0.832-4.894
		L112.676,76.915z"/>
	<path fill="#949494" d="M129.579,75.364c0,0.054,0.577,0.104,0.979,0.368c0.398,0.275,0.438,0.565,0.438,0.968v3.071h0.382v0.205
		h-1.946v-3.6c0-0.277,0.062-0.557-0.211-0.72c-0.166-0.111-0.488-0.091-0.666-0.091h-0.525v4.205h0.378v0.205h-2.332v-0.205h0.385
		v-8.594h-0.385v-0.201h2.731c0.189,0,0.891-0.044,1.289,0.21c0.43,0.279,0.553,0.641,0.553,1.098v1.919
		c0,0.093,0.027,0.523-0.317,0.822C130.006,75.311,129.579,75.325,129.579,75.364 M129.086,71.769c0-0.17,0.025-0.299-0.096-0.437
		c-0.135-0.136-0.328-0.154-0.484-0.154h-0.477v4.195h0.559c0.182,0,0.321-0.062,0.421-0.175c0.113-0.133,0.077-0.34,0.077-0.454
		V71.769L129.086,71.769z"/>
	<polygon fill="#949494" points="143.293,79.977 141.395,72.5 141.395,79.771 141.781,79.771 141.781,79.977 140.557,79.977 
		140.557,79.771 140.934,79.771 140.934,71.178 140.557,71.178 140.557,70.978 142.506,70.978 144.48,78.773 144.48,71.178 
		144.102,71.178 144.102,70.978 145.327,70.978 145.327,71.178 144.938,71.178 144.938,79.977 	"/>
	<path fill="#949494" d="M147.999,73.579c-0.683,0-1.217-0.439-1.217-1.272s0.534-1.271,1.217-1.271
		c0.681,0,1.216,0.438,1.216,1.271C149.215,73.139,148.68,73.579,147.999,73.579 M147.997,71.147c-0.617,0-1.09,0.401-1.09,1.159
		c0,0.769,0.473,1.158,1.09,1.158c0.619,0,1.092-0.39,1.092-1.158C149.089,71.548,148.616,71.147,147.997,71.147 M148.415,72.987
		l-0.433-0.599h-0.283v0.599h-0.12v-1.354h0.442c0.244,0,0.435,0.127,0.435,0.379c0,0.216-0.146,0.337-0.343,0.36l0.445,0.614
		L148.415,72.987L148.415,72.987z M148.021,71.743h-0.322v0.208v0.326h0.322c0.215,0,0.313-0.119,0.313-0.265
		C148.336,71.877,148.238,71.743,148.021,71.743"/>
</g>
</svg>
