<?xml version="1.0" encoding="utf-8"?>
<!-- Generator: Adobe Illustrator 16.0.0, SVG Export Plug-In . SVG Version: 6.00 Build 0)  -->
<!DOCTYPE svg PUBLIC "-//W3C//DTD SVG 1.1//EN" "http://www.w3.org/Graphics/SVG/1.1/DTD/svg11.dtd">
<svg version="1.1" id="Layer_1" xmlns="http://www.w3.org/2000/svg" xmlns:xlink="http://www.w3.org/1999/xlink" x="0px" y="0px"
	 width="150px" height="150px" viewBox="0 0 150 150" enable-background="new 0 0 150 150" xml:space="preserve">
<g>
	<path fill="#797979" d="M78.521,84.378l-1.357-1.696c-1.104,1.104-3.565,2.207-5.347,2.207c-3.056,0-5.687-2.207-5.687-5.093
		c0-3.563,3.395-5.517,4.413-5.855c-0.678-0.849-1.867-2.292-1.867-4.074c0.085-2.376,1.528-4.243,4.668-4.243
		c2.714,0,4.751,1.782,4.751,4.413c0,2.971-2.291,3.988-2.972,4.583l2.206,3.14c0.594-0.765,1.188-2.631,1.104-2.97h2.971
		c0,0-0.426,3.731-2.121,5.517l3.14,4.072L78.521,84.378L78.521,84.378z M73.43,68.423c-0.933,0-1.697,0.764-1.612,1.528
		c0.085,1.019,0.934,1.696,1.443,2.375c0.679-0.509,1.867-1.187,1.867-2.291C75.128,69.187,74.448,68.423,73.43,68.423L73.43,68.423
		z M72.327,76.316c-2.886,1.951-2.716,3.31-2.716,3.31c0,1.356,1.273,2.12,2.207,2.205c1.104,0,2.716-0.935,3.48-1.612
		L72.327,76.316L72.327,76.316z"/>
	<path fill="#949494" d="M21.576,73.6c-0.679-2.716-3.14-4.922-6.025-4.922c-3.649,0-6.365,2.886-6.28,6.365
		c0.085,3.395,2.716,6.025,6.28,6.025c3.395,0,5.347-2.461,5.771-4.074h3.564c-0.764,5.008-5.601,7.64-9.42,7.64
		c-4.329,0-9.76-3.563-9.76-9.59c0-5.686,4.329-9.931,9.844-9.931c4.668,0,8.911,3.564,9.505,8.487H21.576L21.576,73.6z"/>
	<path fill="#949494" d="M50.431,84.464c-2.801,0-3.31-2.038-3.31-3.14v-8.233h-1.782V70.46h1.782v-4.074h3.564v4.243h2.292v2.461
		h-2.292v7.385c0,1.866,2.292,1.271,2.63,1.356v2.633H50.431L50.431,84.464z"/>
	<path fill="#949494" d="M29.214,78.184c0,0.17,0,6.193,0,6.193h-3.48V70.884h3.395v1.357c0.51-0.679,1.528-1.442,2.631-1.781
		c0.764-0.085,1.528,0,1.528,0v3.309C31.505,73.26,29.044,74.023,29.214,78.184L29.214,78.184z"/>
	<path fill="#949494" d="M55.947,78.438c0,1.781,1.697,3.141,3.48,3.141c1.273,0,2.037-0.512,2.716-1.527h3.649
		c-0.509,2.376-2.97,4.583-6.195,4.583c-4.159,0-7.129-3.14-7.129-7.553c0-3.396,2.546-6.875,6.704-6.791
		c4.752,0.085,6.874,4.159,6.789,8.147H55.947L55.947,78.438z M59.088,73.091c-1.527-0.085-2.971,1.104-2.971,2.8h5.94
		C62.057,74.193,60.7,73.091,59.088,73.091L59.088,73.091z"/>
	<path fill="#949494" d="M42.284,84.378c0,0.086-0.084-0.509-0.255-1.103c-0.594,0.51-1.952,1.525-4.074,1.525
		c-2.376,0-5.092-1.441-5.092-4.242c0-1.697,1.103-3.904,4.922-4.414c2.206-0.338,3.904-0.168,3.988-1.355
		c0.084-0.426-0.339-1.867-2.546-1.867c-1.018,0-2.292,0.339-2.546,1.952h-3.056c0-2.377,1.443-4.414,5.941-4.414
		c2.801,0,5.601,1.188,5.601,4.244c0,0,0,7.213,0,7.469c0.085,0.765,0.34,1.781,0.594,2.205H42.284L42.284,84.378z M36.003,80.475
		c0.085,1.44,1.952,1.696,2.292,1.526c0,0,1.867,0,2.716-0.935c0.509-0.678,0.764-1.526,0.509-3.396
		C38.125,78.438,36.003,78.777,36.003,80.475L36.003,80.475z"/>
	<polygon fill="#949494" points="140.898,66.217 144.294,66.217 144.294,84.378 140.898,84.378 	"/>
	<path fill="#949494" d="M122.991,78.268c0,0.17,0,6.109,0,6.109h-3.479V70.969h3.396v1.357c0.595-0.679,1.527-1.527,2.632-1.781
		c0.851-0.17,1.61,0,1.61,0v3.31C125.199,73.345,122.822,74.109,122.991,78.268L122.991,78.268z"/>
	<path fill="#949494" d="M114.591,78.268c0,0.17,0,6.109,0,6.109h-3.563V70.969h3.479v1.357c0.597-0.679,1.529-1.527,2.632-1.781
		c0.764-0.17,1.527,0,1.527,0v3.31C116.883,73.345,114.421,74.109,114.591,78.268L114.591,78.268z"/>
	<path fill="#949494" d="M130.291,78.521c0,1.695,1.695,3.056,3.48,3.056c1.187,0,2.035-0.423,2.715-1.527h3.562
		c-0.424,2.376-2.886,4.582-6.109,4.582c-4.073,0-7.129-3.14-7.129-7.468c0-3.396,2.547-6.875,6.705-6.789
		c4.668,0,6.875,4.157,6.705,8.146H130.291L130.291,78.521z M133.516,73.091c-1.611,0-3.055,1.104-3.055,2.8h5.939
		C136.4,74.278,135.129,73.091,133.516,73.091L133.516,73.091z"/>
	<path fill="#949494" d="M92.102,84.378c-3.818,0-9.506,0-9.506,0V66.131h8.231c2.801,0,5.687,1.273,5.687,4.668
		c0,2.8-2.207,3.395-2.716,3.818c1.611,0.51,3.396,2.037,3.396,5.009C97.191,82.852,94.053,84.378,92.102,84.378L92.102,84.378z
		 M90.062,69.018H85.99v4.498h3.902c0.85,0,2.887-0.34,2.887-2.462C92.779,69.611,91.338,69.018,90.062,69.018L90.062,69.018z
		 M90.062,76.23H85.99v5.346h4.328c0.595,0,2.885-0.51,2.885-2.461C93.204,78.014,92.95,76.23,90.062,76.23L90.062,76.23z"/>
	<path fill="#949494" d="M107.122,84.378c0,0.086-0.17-0.509-0.255-1.103c-0.594,0.51-1.953,1.525-4.072,1.525
		c-2.378,0-5.093-1.441-5.093-4.242c0-1.697,1.103-3.818,5.007-4.414c2.038-0.338,3.818-0.168,3.904-1.355
		c0.085-0.34-0.34-1.783-2.547-1.783c-1.021,0-2.207,0.255-2.461,1.952h-3.142c0-2.376,1.612-4.412,5.938-4.412
		c2.718,0,5.519,1.188,5.604,4.243c0,2.546,0,6.958,0,6.958c0,0.595,0.258,2.122,0.512,2.631H107.122L107.122,84.378z
		 M101.268,80.475c0,1.44,1.951,1.696,2.291,1.526c0,0,1.866,0,2.631-0.935c0.512-0.678,0.68-1.44,0.512-3.396
		C103.389,78.521,101.268,78.777,101.268,80.475L101.268,80.475z"/>
</g>
</svg>
