<?xml version="1.0" encoding="utf-8"?>
<!-- Generator: Adobe Illustrator 16.0.0, SVG Export Plug-In . SVG Version: 6.00 Build 0)  -->
<!DOCTYPE svg PUBLIC "-//W3C//DTD SVG 1.1//EN" "http://www.w3.org/Graphics/SVG/1.1/DTD/svg11.dtd">
<svg version="1.1" id="Layer_1" xmlns="http://www.w3.org/2000/svg" xmlns:xlink="http://www.w3.org/1999/xlink" x="0px" y="0px"
	 width="150px" height="150px" viewBox="0 0 150 150" enable-background="new 0 0 150 150" xml:space="preserve">
<rect x="0.777" y="19.333" fill="#949494" width="148.446" height="111.333"/>
<g>
	<path fill="#FFFFFF" d="M44.376,60.55c-0.014-0.325,0.108-0.588,0.542-0.588s4.825,0.139,7.778,0.139
		c6.123,0,7.592-0.494,8.643-0.494c0.588,0.015,0.711,0.463,0.711,0.727c0,0.263-0.278,0.819-0.278,1.545
		c0,0.727,0.17,1.501,0.17,2.134c0,0.633-0.542,0.851-0.836,0.851c-0.293,0-0.479-0.109-0.494-0.649
		c-0.031-1.035,0.727-2.536-6.71-2.536c-3.789,0-3.881,0.433-3.881,1.638c0,1.207,0.031,5.196,0.031,5.815
		c0,0.618,0.185,0.803,0.68,0.803s4.376,0,5.427,0c1.051,0,2.119-0.571,2.242-2.056c0.047-0.789,0.263-0.819,0.649-0.819
		c0.387,0,0.742,0.309,0.682,1.051c-0.062,0.743-0.217,1.532-0.217,2.598c0,1.067,0.217,2.119,0.217,2.892s-1.021,0.958-1.222,0.124
		c-0.201-0.835-0.495-2.241-2.877-2.241c-2.381,0-4.298,0-4.824,0s-0.789,0.292-0.789,1.159c0,0.867,0,5.103,0,6.169
		c0,1.067,0.325,2.211,2.49,2.211c2.165,0,6.093,0.232,7.886-1.174c0.773-0.636,1.005-1.518,1.268-2.955
		c0.123-0.664,1.562-0.648,1.5,0.881c-0.047,0.713-0.729,2.24-0.729,3.22c0,0.819,0.188,1.917-0.57,1.917
		c-0.642,0-0.371-0.327-3.186-0.327c-2.815,0-12.525,0.062-14.149,0.062c-0.603,0-0.727-0.17-0.727-0.541
		c0-0.369,0.217-0.647,0.728-0.647c0.511,0,2.675,0.03,2.675-2.722s0-12.817,0-14.302s-0.325-2.969-2.149-3.155
		C44.345,61.215,44.393,60.906,44.376,60.55z"/>
	<path fill="#FFFFFF" d="M64.231,69.205c0-0.464,0.248-0.66,0.804-0.845c1.052-0.402,2.258-1.578,3.278-4.361
		c0.324-0.881,1.438-0.649,1.299,0.248c-0.14,0.897-0.341,2.551-0.341,3.495c0.479,0,4.036,0,4.484,0
		c0.448,0,0.525,0.541,0.525,0.974c0,0.433-0.122,0.789-0.51,0.789c-0.418,0-4.5,0-4.5,0s0,4.964,0,7.763s0.958,3.447,2.241,3.447
		c0.742,0,1.346-0.292,1.902-0.68c0.371-0.279,1.206,0.387,0.789,0.927c-0.417,0.542-1.887,2.134-3.989,2.134
		s-3.619-1.562-3.587-4.176c0.032-2.611,0.14-6.973,0.14-7.576c0-0.603-0.789-1.454-1.67-1.454
		C64.37,69.874,64.231,69.492,64.231,69.205z"/>
	<path fill="#FFFFFF" d="M82.432,67.292c1.452,0,2.58,0.511,3.061,0.511s0.665-0.604,1.189-0.604c0.525,0,0.65,0.604,0.512,1.112
		c-0.142,0.511-0.231,1.717-0.172,3.061c0.017,0.464-0.354,0.742-0.728,0.742c-0.371,0-0.51-0.154-0.666-0.865
		c-0.153-0.712-0.787-2.428-3.292-2.428c-1.811,0-2.506,1.206-2.506,1.995s0.424,1.542,2.352,2.381
		c2.025,0.881,5.768,1.824,5.768,5.411c-0.124,3.373-3.463,4.438-5.426,4.438c-1.656,0-3.201-0.494-3.883-0.494
		c-0.681,0-0.941,0.571-1.375,0.571s-0.742-0.494-0.572-1.005c0.171-0.511,0.386-0.897,0.386-1.407s-0.292-1.699-0.122-2.689
		c0.17-0.989,1.5-1.129,1.482-0.17c-0.015,0.957,0.42,3.693,3.883,3.693c2.798,0,3.123-1.947,3.123-2.504
		c0-0.682-0.141-1.654-3.495-2.984c-3.354-1.33-4.653-2.565-4.653-4.686C77.298,69.255,79.184,67.292,82.432,67.292z"/>
	<path fill="#FFFFFF" d="M88.925,68.189c0-0.325,0.017-0.479,0.388-0.479s2.336,0.062,3.369,0.062c1.036,0,2.94-0.062,3.326-0.062
		c0.279,0,0.201,0.339,0.201,0.571c0,0.232,0.029,0.618-0.465,0.618s-1.424,0.171-1.424,0.99c0,0.82,0.22,1.048,0.541,1.933
		c0.355,0.974,2.925,6.866,2.925,6.866s2.01-4.128,2.612-5.288c0.602-1.159,0.975-2.613,0.975-3.263c0-0.65-0.666-1.083-1.223-1.189
		c-0.557-0.109-0.834-0.078-0.834-0.743c0-0.34,0.062-0.525,0.34-0.525c0.277,0,1.947,0.108,3.186,0.108
		c1.236,0,2.676-0.077,3.077-0.077c0.37,0,0.263,0.309,0.263,0.571c0,0.263-0.031,0.526-0.354,0.571
		c-0.325,0.047-1.764-0.016-3.264,3.17s-4.469,9.604-6.619,13.778c-1.111,2.195-3.215,4.592-5.411,4.592
		c-1.146,0.017-1.595-0.975-1.595-1.469s0.277-1.299,1.58-1.299c0.863,0,1.096,0.417,1.515,0.417c0.866,0,3.062-2.104,3.68-5.876
		c0.093-0.865-0.798-2.986-1.144-3.941c-0.516-1.424-2.084-5.548-3.219-7.996c-0.388-0.837-1.406-1.268-2.056-1.345
		C88.986,68.822,88.925,68.714,88.925,68.189z"/>
</g>
</svg>
