<?xml version="1.0" encoding="utf-8"?>
<!-- Generator: Adobe Illustrator 16.0.0, SVG Export Plug-In . SVG Version: 6.00 Build 0)  -->
<!DOCTYPE svg PUBLIC "-//W3C//DTD SVG 1.1//EN" "http://www.w3.org/Graphics/SVG/1.1/DTD/svg11.dtd">
<svg version="1.1" id="Layer_1" xmlns="http://www.w3.org/2000/svg" xmlns:xlink="http://www.w3.org/1999/xlink" x="0px" y="0px"
	 width="150px" height="150px" viewBox="0 0 150 150" enable-background="new 0 0 150 150" xml:space="preserve">
<g>
	<path fill="none" stroke="#949494" stroke-width="4.765" d="M28.115,114.445L2.822,85.273l3.12-35.671l29.927-23.785l111.309,9.738
		l-7.753,88.628L28.115,114.445z M12.646,72.863c2.192,0.192,4.125-1.43,4.317-3.622c0.192-2.193-1.431-4.126-3.623-4.318
		c-2.193-0.191-4.126,1.43-4.318,3.623C8.83,70.739,10.453,72.673,12.646,72.863z"/>
	<path fill="#949494" d="M131.104,84.832c0.106-1.227,1.166-2.113,2.396-2.006c1.23,0.105,2.119,1.164,2.012,2.389
		c-0.104,1.227-1.164,2.115-2.396,2.008C131.887,87.115,130.999,86.057,131.104,84.832z M131.464,84.863
		c-0.09,1.035,0.679,1.912,1.685,2c1.009,0.088,1.918-0.646,2.009-1.68c0.09-1.041-0.681-1.914-1.687-2.002
		C132.462,83.096,131.555,83.822,131.464,84.863z M134.207,86.365l-0.408-0.037l-0.531-1.195l-0.459-0.041l-0.1,1.143l-0.357-0.032
		l0.215-2.474l1.041,0.092c0.449,0.039,0.84,0.207,0.793,0.729c-0.043,0.486-0.387,0.638-0.719,0.619L134.207,86.365z
		 M132.895,84.119l-0.056,0.615l0.38,0.033c0.336,0.028,0.79,0.125,0.819-0.209c0.026-0.314-0.233-0.361-0.532-0.386L132.895,84.119
		z"/>
	<path fill="#949494" d="M107.755,80.1l3.536,7.303l0.395,0.035c0.471-0.811,0.89-1.627,1.451-2.395l3.053-4.207l15.19,1.328
		l-14.046,14.002l-1.002,11.451l-13.219-1.156l1.002-11.449L92.466,78.764L107.755,80.1z"/>
	<path fill="#949494" d="M92.909,78.801l-1.373,15.715c-0.679,7.75-7.55,10.699-17.585,9.822
		c-10.035-0.879-16.29-4.977-15.613-12.727l1.374-15.713l13.032,1.14L71.45,91.836c-0.182,2.078-0.247,3.918,3.226,4.223
		c3.471,0.303,3.727-1.52,3.908-3.6l1.294-14.797L92.909,78.801z"/>
	<path fill="#949494" d="M27.001,72.986l15.734,1.376c7.201,0.63,14.441,2.506,13.905,8.638c-0.203,2.326-2.032,4.471-5.352,4.928
		l-0.019,0.211c3.954,1.375,6.335,3.715,6.058,6.885c-0.479,5.461-7.744,6.707-14.255,6.138l-18.397-1.609L27.001,72.986z
		 M39.867,84.408c1.974,0.172,4.206,0.225,4.366-1.605c0.173-1.975-2.355-2.054-4.328-2.227l-0.938-0.082l-0.333,3.805
		L39.867,84.408z M37.758,94.305l1.529,0.135c2.22,0.195,5.429,0.439,5.619-1.744c0.194-2.221-3.261-2.485-5.432-2.678l-1.33-0.117
		L37.758,94.305z"/>
	<path fill="#949494" d="M57.418,45.724l25.006,2.187l-0.634,7.258l-11.394-0.996l-0.222,2.537l10.405,0.909l-0.604,6.906
		l-10.407-0.909l-0.227,2.606l11.788,1.031l-0.636,7.258L55.092,72.29L57.418,45.724z"/>
	<path fill="#949494" d="M86.148,65.419l0.658,0.449c2.301,1.55,5.113,2.896,8.223,3.167c1.33,0.118,3.484-0.085,3.59-1.282
		c0.105-1.2-1.66-1.46-2.879-1.744l-2.682-0.59c-5.219-1.13-9.465-3.738-9.102-7.896c0.552-6.306,8.898-9.126,16.988-8.419
		c4.242,0.371,8.072,1.451,11.584,3.356l-4.243,6.481c-2.22-1.331-4.759-2.439-7.667-2.694c-1.184-0.104-2.938,0.062-3.032,1.154
		c-0.087,0.987,1.578,1.274,2.599,1.541l3.017,0.761c5.641,1.416,9.592,3.963,9.196,8.473c-0.553,6.341-8.916,8.77-16.955,8.067
		c-4.688-0.411-10.031-1.801-14.092-3.683L86.148,65.419z"/>
	<path fill="#949494" d="M113.578,50.635l28.408,2.484l-0.754,8.632l-7.428-0.898l-1.59,18.18L118.7,77.852l1.591-18.181
		l-7.469-0.404L113.578,50.635z"/>
	<path fill="#949494" d="M24.204,42.669l15.733,1.377c7.202,0.63,14.442,2.506,13.906,8.636c-0.204,2.326-2.031,4.473-5.352,4.929
		l-0.019,0.211c3.956,1.375,6.335,3.713,6.058,6.884c-0.479,5.461-7.744,6.707-14.254,6.138l-18.398-1.61L24.204,42.669z
		 M37.07,54.09c1.973,0.172,4.205,0.226,4.365-1.606c0.173-1.973-2.355-2.052-4.328-2.225l-0.938-0.083l-0.333,3.806L37.07,54.09z
		 M34.962,63.988l1.529,0.134c2.219,0.194,5.428,0.44,5.619-1.745c0.193-2.22-3.262-2.487-5.432-2.677l-1.332-0.116L34.962,63.988z"
		/>
</g>
</svg>
