<?xml version="1.0" encoding="utf-8"?>
<!-- Generator: Adobe Illustrator 16.0.0, SVG Export Plug-In . SVG Version: 6.00 Build 0)  -->
<!DOCTYPE svg PUBLIC "-//W3C//DTD SVG 1.1//EN" "http://www.w3.org/Graphics/SVG/1.1/DTD/svg11.dtd">
<svg version="1.1" id="gift" xmlns="http://www.w3.org/2000/svg" xmlns:xlink="http://www.w3.org/1999/xlink" x="0px" y="0px"
	 width="100px" height="100px" viewBox="0 0 100 100" style="enable-background:new 0 0 100 100;" xml:space="preserve">
<style type="text/css">
<![CDATA[
	.st0{fill:#E5E5E5;}
	.st1{fill:#C1C1C1;}
	.st2{fill:#D8D8D8;}
]]>
</style>
<g id="box-top">
	<rect x="63.9" y="37" class="st1" width="30.1" height="22"/>
	<rect x="5.9" y="37" class="st1" width="32.5" height="22"/>
</g>
<g id="box-bottom">
	<rect x="10.6" y="61.4" class="st2" width="27.8" height="38.3"/>
	<rect x="63.9" y="61.4" class="st2" width="24.4" height="38.3"/>
</g>
<g id="bow">
	<path class="st0" d="M44.9,29.6c0,0-0.1,0-0.2,0c-0.1,0-0.3,0-0.6,0c-0.5,0-1.2-0.1-2.1-0.2c-0.9-0.1-1.9-0.3-3.2-0.7
		c-0.6-0.2-1.2-0.4-1.9-0.6c-0.7-0.2-1.4-0.5-2.1-0.8c-0.7-0.3-1.4-0.6-2.2-1c-0.8-0.4-1.5-0.8-2.3-1.3c-0.8-0.5-1.6-1.1-2.4-1.7
		c-0.8-0.7-1.6-1.4-2.4-2.4c-0.4-0.5-0.8-1-1.1-1.5c-0.4-0.6-0.7-1.2-1-1.9c-0.6-1.4-1-3.1-0.8-5c0.1-0.9,0.3-1.8,0.6-2.7
		C23.5,9,24,8.2,24.4,7.5L24.7,7l0.1-0.1l0.1-0.2l0.1-0.1l0.1-0.1c0,0,0.1-0.1,0.1-0.2l0.4-0.4c0.5-0.5,0.9-1,1.5-1.5
		c1.1-1,2.6-1.9,4.4-2.5c0.9-0.3,1.9-0.4,2.8-0.4c1,0,1.9,0.1,2.8,0.4C38,2,38.8,2.3,39.5,2.7c0.7,0.4,1.3,0.8,1.8,1.2
		c1.1,0.9,1.9,1.8,2.6,2.7c0.4,0.5,0.7,0.9,1,1.4c0.3,0.5,0.5,0.9,0.8,1.4c0.5,0.9,0.9,1.8,1.2,2.7c0.7,1.7,1.1,3.4,1.4,4.9
		c0.3,1.5,0.4,2.9,0.5,4.2c0,1.2,0,2.3-0.1,3.2c-0.1,0.9-0.2,1.6-0.2,2.1c0,0.2-0.1,0.5-0.1,0.6c0,0.1,0,0.3,0,0.3l-0.6,0.1
		c0,0-0.1-0.3-0.2-0.8c-0.1-0.4-0.3-1.1-0.5-1.9c-0.2-0.8-0.5-1.8-0.9-2.9c-0.4-1.1-0.8-2.3-1.3-3.6c-0.5-1.3-1.2-2.7-2-4.1
		c-0.8-1.4-1.7-2.8-2.9-4.1c-0.6-0.6-1.2-1.2-1.9-1.7c-0.7-0.5-1.5-0.9-2.3-1.1c-0.8-0.2-1.7-0.2-2.5,0.1c-0.8,0.3-1.5,0.7-2.2,1.3
		c-0.3,0.3-0.6,0.6-0.9,1c-0.1,0.2-0.3,0.3-0.4,0.5l-0.1,0.1l0,0.1l0,0.1l-0.2,0.3c-0.5,0.7-0.8,1.5-0.9,2.4c-0.1,0.8,0,1.7,0.3,2.5
		c0.3,0.8,0.7,1.6,1.2,2.3c1,1.4,2.2,2.6,3.4,3.7c1.2,1.1,2.4,2,3.6,2.8c2.3,1.6,4.4,2.8,5.8,3.6c1.4,0.8,2.3,1.2,2.3,1.2L44.9,29.6
		z"/>
	<path class="st0" d="M57.6,29.9c0,0,0.1,0,0.2,0.1c0.1,0,0.3,0.1,0.5,0.1c0.5,0.1,1.2,0.3,2.1,0.4c0.9,0.1,2,0.2,3.2,0.3
		c0.6,0,1.3,0,2,0c0.7,0,1.4-0.1,2.2-0.2c0.8-0.1,1.6-0.2,2.4-0.4c0.8-0.2,1.7-0.4,2.6-0.6c0.9-0.3,1.8-0.6,2.8-1
		c1-0.4,1.9-0.9,2.9-1.6c0.5-0.3,1-0.7,1.5-1.2c0.5-0.4,1-0.9,1.5-1.5c1-1.1,1.8-2.7,2.2-4.5c0.2-0.9,0.3-1.8,0.2-2.8
		c-0.1-0.9-0.2-1.8-0.5-2.6l-0.2-0.6l0-0.1l-0.1-0.2l-0.1-0.2L83,13.2c0-0.1,0-0.1-0.1-0.2l-0.2-0.5c-0.3-0.7-0.6-1.3-1-1.9
		c-0.8-1.3-1.9-2.6-3.5-3.6c-0.8-0.5-1.7-0.9-2.6-1.2c-0.9-0.3-1.9-0.4-2.8-0.4c-0.9,0-1.7,0.1-2.5,0.3c-0.8,0.2-1.5,0.4-2.1,0.7
		c-1.3,0.5-2.3,1.2-3.3,1.9c-0.5,0.3-0.9,0.7-1.3,1c-0.4,0.4-0.8,0.7-1.1,1.1c-0.7,0.7-1.3,1.5-1.9,2.2c-1.1,1.5-2,3-2.7,4.4
		c-0.7,1.4-1.2,2.7-1.6,3.9c-0.4,1.2-0.7,2.2-0.8,3.1c-0.2,0.9-0.3,1.6-0.3,2.1c0,0.2-0.1,0.5-0.1,0.6c0,0.1-0.1,0.3-0.1,0.3
		l0.5,0.3c0,0,0.2-0.3,0.4-0.7c0.2-0.4,0.6-1,1-1.7c0.4-0.7,1-1.6,1.6-2.5c0.7-0.9,1.4-2,2.3-3.1c0.9-1.1,1.9-2.3,3-3.4
		c1.1-1.1,2.4-2.2,3.9-3.1c0.7-0.4,1.5-0.8,2.3-1.1c0.8-0.3,1.7-0.4,2.5-0.4c0.8,0,1.7,0.3,2.4,0.8c0.7,0.5,1.3,1.1,1.7,1.9
		c0.2,0.4,0.4,0.8,0.6,1.2c0.1,0.2,0.2,0.4,0.3,0.6l0.1,0.2l0,0.1l0,0.1l0.1,0.3c0.3,0.8,0.3,1.7,0.2,2.5c-0.2,0.8-0.5,1.6-1,2.3
		c-0.5,0.7-1.1,1.3-1.8,1.8c-1.3,1.1-2.8,1.9-4.3,2.6C69.4,26,68,26.5,66.6,27c-2.7,0.9-5,1.5-6.6,1.8c-1.6,0.4-2.5,0.5-2.5,0.5
		L57.6,29.9z"/>
	<path class="st0" d="M45,34.7h12c0,0,0.2-5.9-5.9-5.9C45,28.8,45,34.7,45,34.7z"/>
	<rect x="40.7" y="35.9" class="st0" width="20.9" height="63.8"/>
</g>
</svg>
