<?xml version="1.0" encoding="utf-8"?>
<!-- Generator: Adobe Illustrator 16.0.0, SVG Export Plug-In . SVG Version: 6.00 Build 0)  -->
<!DOCTYPE svg PUBLIC "-//W3C//DTD SVG 1.1//EN" "http://www.w3.org/Graphics/SVG/1.1/DTD/svg11.dtd">
<svg version="1.1" id="Layer_1" xmlns="http://www.w3.org/2000/svg" xmlns:xlink="http://www.w3.org/1999/xlink" x="0px" y="0px"
	 width="150px" height="150px" viewBox="0 0 150 150" enable-background="new 0 0 150 150" xml:space="preserve">
<g>
	<path fill="#949494" d="M2.889,64.536c-0.014,1.396,1.04,2.956,2.548,3.521c1.007,0.314,2.364,0.776,4.043-0.587v-2.045
		c0,0-0.847,0.645-1.744,0.606c-0.65,0.001-1.525-0.255-1.577-1.495v-9.038h2.47l0.188-1.5H6.158V50.57l-4.922,4.928h1.653V64.536
		L2.889,64.536z"/>
	<path fill="#949494" d="M88.587,64.043c0.783,1.158,0.878,2.796,0.077,4.029c-2.703,3.206-6.348,5.092-9.43,7.858
		c-0.689,0.629-1.318,1.321-1.258,2.2c0.127,0.69,0.691,1.194,1.258,1.445c3.709,1.446,7.73,2.263,11.254,4.147
		c2.324,1.385,5.846,3.332,5.469,6.662c-0.25,1.637-1.822,2.956-3.331,3.521c-4.339,1.133-8.739-0.252-12.51-1.697
		c-6.6-2.576-12.132-7.543-18.921-9.616c-5.649-1.452-10.906,2.735-15.212,6.726l-0.251,0.252c-0.812,0.83-1.963,1.896-2.326,3.08
		c0.793-0.07,1.561-0.117,2.326-0.123c8.738,0.186,14.521,7.541,22.126,10.496c3.96,1.568,9.053,1.006,12.699-0.754
		c7.479-3.332,14.459-8.11,20.745-14.271c2.263-2.516,4.398-5.09,5.093-8.299c0.25-2.012-0.504-3.958-2.266-5.152
		c-3.896-2.264-8.611-2.703-12.57-4.841c-0.881-0.565-1.363-1.382-1.371-2.339c0-1.006,0.365-1.999,1.244-2.627l7.104-4.777
		c1.257-1.005,2.894-2.201,3.458-3.709c0.312-1.005,0.062-2.073-0.441-2.892c-2.83-4.026-8.354-5.946-12.551-4.481
		c-4.357,1.523-5.447,7.769-8.382,11.585c-0.94,1.257-2.198,3.08-4.022,2.514c-0.627-0.313-1.195-1.067-1.383-1.823
		c-1.132-3.772-1.571-7.857-3.834-11.126c-0.817-1.321-2.137-2.578-3.52-3.27c-3.143-1.886-7.417-0.88-10.246,1.132
		c-5.239,3.367-10.438,8.576-13.281,14.056c-1.363,2.629-2.427,6.728-1.123,8.773c2.563,4.024,8.353,5.065,12.767,6.439
		c1.35,0.42,2.367,1.571,2.977,2.657c2.318-0.981,4.568-3.389,5.575-5.65c0.628-1.445,0.628-3.521-0.315-4.903
		c-3.709-4.777-9.932-4.777-14.709-7.669c-1.005-0.755-1.634-1.949-1.383-3.207c0.314-1.006,1.132-1.822,2.012-2.325
		c1.76-1.069,4.463-0.691,6.098,0.251C66.601,61.66,67.857,73.038,68.11,83.66c0,0.398,0.476,0.902,0.753,0.378l10.394-20.102
		c0.556-1.196,1.9-2.011,3.122-2.339C84.792,60.979,87.259,62.074,88.587,64.043L88.587,64.043z"/>
	<path fill="#949494" d="M116.706,80.341c-3.179,1.142-6.279,2.024-7.989,4.452c-1.132,1.697-1.509,4.15-0.629,6.034
		c0.818,1.698,2.641,2.878,4.383,3.343c3.012,0.67,5.94-0.25,8.402-2.385c0.338,0.711,0.631,1.345,1.229,2.13h4.834
		c-0.783-0.892-1.322-2.649-1.314-4.048V77.773c0.007-3.207-0.459-5-2.13-7c-3.24-3.116-9.229-2.743-13.209,0.074v4.297
		c1.848-1.558,4.347-2.738,6.797-2.675c1.51,0.063,3.169,0.817,3.796,2.264c0.504,1.446-0.023,2.956-1.154,4.022
		C118.611,79.598,117.977,79.889,116.706,80.341L116.706,80.341z M116.509,82.952c1.312-0.55,3.235-1.147,4.364-1.777v6.013
		c-0.105,2.07-1.131,2.752-1.783,3.326c-1.186,1.02-2.918,1.485-4.477,1.004c-0.879-0.438-1.497-1.379-1.811-2.199
		c-0.504-1.567-0.189-3.355,0.887-4.588C114.393,83.951,115.075,83.557,116.509,82.952L116.509,82.952z"/>
	<path fill="#949494" d="M29.815,60.755c-0.006,1.458-0.237,3.731,1.709,4.929c1.509,0.817,3.957,0.378,5.352-0.803l0.013,2.133
		c-1.126,1.018-4.808,2.312-7.879,0.366c-2.577-1.886-3.08-4.965-2.766-8.046c0.377-1.886,1.258-3.897,3.081-4.903
		c2.326-1.32,6.098-1.131,7.732,1.257c0.88,1.258,1.097,3.543,0.871,5.052L29.815,60.755L29.815,60.755z M34.752,58.898
		c-0.047-1.759-0.179-3.689-2.274-3.689c-1.87,0-2.588,1.854-2.588,3.689H34.752L34.752,58.898z"/>
	<path fill="#949494" d="M23.447,66.524c0.013-0.001,0.017-9.06,0-9.073c0-2.063-1.352-3.121-2.42-3.562
		c-1.885-0.627-3.921-0.162-5.28,1.132l-0.566,0.51c0.002-0.001,0.001-8.904,0-8.904h-3.458v21.685h3.458
		c0.004,0.017,0.005-9.591,0-9.597c0-0.944,0.377-1.682,1.195-2.248c0.69-0.378,1.571-0.566,2.388-0.314
		c0.755,0.251,1.26,0.835,1.258,2.562v7.376c-0.005,0.617,0.276,2.156,1.215,2.155c-0.01,0.003,3.104,0.017,3.104,0
		C23.705,67.647,23.56,67.311,23.447,66.524L23.447,66.524z"/>
	<path fill="#949494" d="M130.552,71.974c-0.006-1.133-0.526-2.002-1.124-2.561h4.637c0.711,0.021,1.295,1.512,1.295,3.234
		l0.014,14.976c-0.014,1.521,0.729,2.868,2.197,3.583c1.386,0.628,3.146,0.313,4.275-0.565c2.012-1.761,2.23-4.213,2.23-6.662
		l0.017-14.562h4.673l-0.006,25.062c0,2.906-2.193,6.799-5.531,8.424c-4.543,2.131-9.304,1.682-12.518-1.031v-3.745
		c2.702,2.267,6.848,3.494,10.314,1.758c2.642-1.571,3.731-5.081,2.973-7.86c-3.123,2.785-6.503,3.312-9.318,2.018
		c-1.949-0.755-4.127-3.165-4.127-5.364L130.552,71.974L130.552,71.974z"/>
</g>
</svg>
