<?xml version="1.0" encoding="utf-8"?>
<!-- Generator: Adobe Illustrator 16.0.0, SVG Export Plug-In . SVG Version: 6.00 Build 0)  -->
<!DOCTYPE svg PUBLIC "-//W3C//DTD SVG 1.1//EN" "http://www.w3.org/Graphics/SVG/1.1/DTD/svg11.dtd">
<svg version="1.1" id="Layer_1" xmlns="http://www.w3.org/2000/svg" xmlns:xlink="http://www.w3.org/1999/xlink" x="0px" y="0px"
	 width="150px" height="150px" viewBox="0 0 150 150" enable-background="new 0 0 150 150" xml:space="preserve">
<g>
	<g>
		<path fill="#949494" d="M149.167,85.559c-1.603,1.254-2.379,0.899-2.365-1.172c0.019-3.06,0-6.119-0.024-9.18
			c-0.016-1.707-0.153-3.508-2.141-4.017c-2.146-0.548-3.666,0.808-4.216,2.613c-0.683,2.244-0.853,4.656-1.104,7.009
			c-0.149,1.391,0.054,2.817-0.099,4.209c-0.049,0.453-0.713,0.842-1.096,1.258c-0.276-0.43-0.781-0.854-0.793-1.291
			c-0.074-2.646-0.031-5.293-0.033-7.938c-0.002-0.661,0.035-1.332-0.053-1.982c-0.218-1.621-0.173-3.52-2.298-3.912
			c-2.159-0.398-3.733,0.966-4.151,2.76c-0.678,2.928-0.672,6.007-1.125,8.996c-0.17,1.124,1.017,2.83-1.028,3.186
			c-0.175,0.029-1-2.074-1.041-3.203c-0.138-3.717-0.101-7.441-0.015-11.163c0.021-0.796,0.528-1.581,0.812-2.371
			c0.631,0.56,1.262,1.121,1.959,1.743c4.594-2.945,6.037-2.879,8.965,0.651c1.098-0.793,2.102-1.844,3.324-2.338
			c2.963-1.195,4.754-0.079,6.521,3.735C149.167,77.286,149.167,81.424,149.167,85.559z"/>
		<path fill="#949494" d="M0.772,69.677c1.655-1.005,2.541-0.581,2.913,1.363c0.645,3.372,1.429,6.718,2.712,10.199
			c0.28-0.585,0.641-1.147,0.828-1.763c0.893-2.916,1.678-5.871,2.651-8.76c0.204-0.604,1.039-0.995,1.584-1.484
			c0.438,0.501,1.111,0.937,1.274,1.516c0.711,2.54,1.265,5.123,1.897,7.687c0.228,0.924,0.517,1.834,0.777,2.75
			c0.229,0.012,0.458,0.021,0.688,0.032c0.699-2.627,1.401-5.252,2.093-7.88c0.272-1.036,0.387-2.143,0.841-3.09
			c0.233-0.484,1.06-0.683,1.618-1.011c0.204,0.522,0.685,1.12,0.567,1.554c-1.325,4.852-2.708,9.688-4.18,14.494
			c-0.161,0.525-1.044,1.257-1.457,1.179c-0.523-0.1-1.138-0.86-1.312-1.457c-0.987-3.371-1.857-6.778-3.375-10.269
			c-0.295,0.763-0.633,1.514-0.879,2.292c-0.845,2.673-1.592,5.379-2.531,8.017c-0.217,0.611-1.054,1.001-1.604,1.494
			c-0.414-0.526-1.049-0.995-1.209-1.59c-1.162-4.3-2.221-8.622-3.332-12.935c-0.121-0.466-0.374-0.898-0.565-1.347
			C0.772,70.337,0.772,70.007,0.772,69.677z"/>
		<path fill="#949494" d="M33.031,87.048c-5.324-2.733-7.279-7.802-5.255-13.624c1.369-3.94,5.946-5.872,9.751-4.115
			c2.538,1.172,3.793,4.855,2.304,7.187c-0.348,0.546-1.312,0.928-2.02,0.972c-2.142,0.132-4.31-0.069-6.436,0.149
			c-0.604,0.062-1.585,1.139-1.572,1.73c0.087,3.95,3.168,6.057,6.991,4.916c1.005-0.302,1.974-0.72,2.96-1.082
			c0.207,0.159,0.412,0.321,0.617,0.483c-0.479,0.724-0.82,1.635-1.477,2.116c-0.826,0.604-1.912,0.857-2.885,1.266
			C35.018,87.048,34.024,87.048,33.031,87.048z M30.266,75.223c1.909,0,3.627,0.13,5.311-0.054c0.816-0.09,1.566-0.77,2.347-1.182
			c-0.518-0.856-0.833-2.052-1.591-2.505C33.88,70.019,30.904,71.706,30.266,75.223z"/>
		<path fill="#949494" d="M99.04,87.048c-5.367-2.751-7.363-8.448-4.953-14.139c1.615-3.813,6.455-5.424,10.024-3.337
			c2.166,1.265,3.164,4.966,1.734,7.005c-0.375,0.534-1.347,0.86-2.066,0.901c-2.062,0.119-4.133,0.082-6.198,0.028
			c-1.396-0.034-1.881,0.472-1.765,1.919c0.32,3.92,3.062,5.934,6.875,4.857c1.015-0.286,1.983-0.732,3.647-0.734
			c-0.461,0.771-0.76,1.749-1.422,2.258c-0.81,0.618-1.92,0.844-2.899,1.239C101.025,87.048,100.032,87.048,99.04,87.048z
			 M96.337,75.229c2.006,0,3.806,0.095,5.582-0.048c0.688-0.054,1.906-0.688,1.888-0.99c-0.058-0.867-0.396-1.997-1.035-2.492
			C100.354,69.83,96.979,71.515,96.337,75.229z"/>
		<path fill="#949494" d="M50.899,87.048c-0.733-0.317-1.544-0.532-2.176-0.991c-0.494-0.358-0.766-1.022-1.137-1.555
			c0.612-0.167,1.237-0.512,1.832-0.465c1.297,0.099,2.637,0.727,3.849,0.51c0.925-0.165,2.013-1.152,2.387-2.044
			c0.245-0.584-0.449-1.887-1.09-2.438c-0.978-0.842-2.273-1.312-3.438-1.937c-2.875-1.53-3.836-3.378-3.106-5.979
			c0.627-2.234,2.723-3.517,5.682-3.38c0.896,0.042,1.844,0.159,2.649,0.515c0.533,0.236,0.851,0.958,1.266,1.462
			c-0.614,0.228-1.221,0.605-1.847,0.642c-0.628,0.036-1.359-0.533-1.9-0.366c-1.156,0.357-2.823,0.784-3.146,1.62
			c-0.301,0.786,0.73,2.224,1.424,3.198c0.381,0.534,1.258,0.743,1.943,1.027c2.293,0.958,4.465,2.104,4.502,4.984
			c0.035,2.803-1.917,4.187-4.218,5.194C53.215,87.048,52.056,87.048,50.899,87.048z"/>
		<path fill="#949494" d="M70.75,87.048c-2.514-1.215-3.503-3.28-3.457-5.998c0.041-2.396-0.041-4.793-0.045-7.19
			c-0.003-1.378,0.045-2.72-1.912-2.82c-0.317-0.015-0.833-0.589-0.844-0.917c-0.01-0.314,0.5-0.898,0.818-0.926
			c2.06-0.179,1.999-1.608,1.933-3.067c-0.065-1.456,0.253-2.611,2.316-2.814c0.056,1.034,0.234,1.987,0.134,2.908
			c-0.237,2.168,0.65,2.971,2.806,2.955c1.024-0.006,2.055,0.637,3.082,0.986c-1.051,0.313-2.103,0.892-3.15,0.881
			c-1.987-0.018-2.901,0.605-2.767,2.722c0.14,2.224,0.021,4.462,0.047,6.694c0.039,3.291,1.143,4.183,4.481,3.692
			c0.387-0.057,0.791-0.008,1.173-0.008c0.927,2.315-1.262,2.1-2.134,2.9C72.405,87.048,71.579,87.048,70.75,87.048z"/>
		<path fill="#949494" d="M117.854,63.845c0,4.74,0,9.181-0.002,13.622c0,2.231,0.076,4.469-0.057,6.691
			c-0.041,0.723-0.633,1.415-0.975,2.119c-0.396-0.75-1.117-1.494-1.135-2.254c-0.105-5.121-0.047-10.248-0.078-15.372
			c-0.008-1.255,0.412-2.77-1.557-3.124c-0.221-0.04-0.521-0.668-0.461-0.948c0.066-0.292,0.518-0.674,0.824-0.703
			C115.395,63.79,116.387,63.845,117.854,63.845z"/>
	</g>
</g>
</svg>
