<?xml version="1.0" encoding="utf-8"?>
<!-- Generator: Adobe Illustrator 16.0.0, SVG Export Plug-In . SVG Version: 6.00 Build 0)  -->
<!DOCTYPE svg PUBLIC "-//W3C//DTD SVG 1.1//EN" "http://www.w3.org/Graphics/SVG/1.1/DTD/svg11.dtd">
<svg version="1.1" id="Layer_1" xmlns="http://www.w3.org/2000/svg" xmlns:xlink="http://www.w3.org/1999/xlink" x="0px" y="0px"
	 width="100px" height="100px" viewBox="0 0 100 100" enable-background="new 0 0 100 100" xml:space="preserve">
<g id="Your_Icon">
	<ellipse fill="#E5E5E5" cx="49.984" cy="7.752" rx="6.075" ry="7.751"/>
	<path fill="#E5E5E5" d="M50,18.5c0,0-3-2.5-4-2.5s-2,3,0,5C46.707,21.707,50,18.5,50,18.5"/>
	<path fill="#E5E5E5" d="M50,19.5c-0.552,0-1-0.448-1-1s0.448-1,1-1C50,18,50,20,50,19.5z"/>
	<path fill="#E5E5E5" d="M49.846,18.5c0,0,3-2.5,4-2.5s2,3,0,5C53.139,21.707,49.846,18.5,49.846,18.5"/>
	<path fill="#E5E5E5" d="M49.846,19.5c0.553,0,1-0.448,1-1s-0.447-1-1-1C49.846,18,49.846,20,49.846,19.5z"/>
	<g>
		<g>
			<ellipse fill="#E5E5E5" cx="40" cy="57" rx="3" ry="5"/>
		</g>
	</g>
	<g>
		<g>
			<ellipse fill="#E5E5E5" cx="60" cy="57" rx="3" ry="5"/>
		</g>
	</g>
	<rect x="49" y="33" fill="#E5E5E5" width="2.454" height="67"/>
	<g>
		<path fill="#E5E5E5" d="M60.25,27.875"/>
		<g>
			<g>
				<g>
					<path fill="#E5E5E5" d="M60.25,27.875L60.25,27.875L60.25,27.875L60.25,27.875L60.25,27.875L60.25,27.875L60.25,27.875
						L60.25,27.875L60.25,27.875L60.25,27.875L60.25,27.875L60.25,27.875L60.25,27.875L60.25,27.875L60.25,27.875L60.25,27.875
						L60.25,27.875L60.25,27.875L60.25,27.875L60.25,27.875L60.25,27.875L60.25,27.875L60.25,27.875L60.25,27.875L60.25,27.875
						L60.25,27.875L60.25,27.875L60.25,27.875L60.25,27.875z"/>
				</g>
				<g>
					<path fill="#E5E5E5" d="M60.25,27.875L60.25,27.875L60.25,27.875L60.25,27.875L60.25,27.875L60.25,27.875L60.25,27.875
						L60.25,27.875L60.25,27.875L60.25,27.875L60.25,27.875L60.25,27.875L60.25,27.875L60.25,27.875L60.25,27.875L60.25,27.875
						L60.25,27.875L60.25,27.875L60.25,27.875L60.25,27.875L60.25,27.875L60.25,27.875L60.25,27.875L60.25,27.875L60.25,27.875
						L60.25,27.875L60.25,27.875L60.25,27.875L60.25,27.875z"/>
				</g>
				<g>
					<path fill="#E5E5E5" d="M60.25,27.875L60.25,27.875L60.25,27.875L60.25,27.875L60.25,27.875L60.25,27.875L60.25,27.875
						L60.25,27.875L60.25,27.875L60.25,27.875L60.25,27.875L60.25,27.875L60.25,27.875L60.25,27.875L60.25,27.875L60.25,27.875
						L60.25,27.875L60.25,27.875L60.25,27.875L60.25,27.875L60.25,27.875L60.25,27.875L60.25,27.875L60.25,27.875L60.25,27.875
						L60.25,27.875L60.25,27.875L60.25,27.875L60.25,27.875z"/>
				</g>
			</g>
		</g>
	</g>
	<polygon fill="#E5E5E5" points="57.27,21.571 57.324,22.074 57.491,21.596 57.434,22.099 57.702,21.67 57.534,22.148 57.893,21.79 
		57.622,22.218 58.051,21.948 57.691,22.305 58.17,22.137 57.74,22.406 58.243,22.349 57.766,22.515 58.27,22.571 57.766,22.627 
		58.243,22.794 57.74,22.736 58.17,23.005 57.691,22.837 58.051,23.195 57.622,22.925 57.893,23.353 57.534,22.995 57.702,23.472 
		57.434,23.043 57.491,23.546 57.324,23.068 57.27,23.571 57.213,23.068 57.046,23.546 57.104,23.043 56.835,23.472 57.003,22.995 
		56.646,23.353 56.915,22.925 56.486,23.195 56.846,22.837 56.367,23.005 56.797,22.736 56.294,22.794 56.771,22.627 56.27,22.571 
		56.771,22.515 56.294,22.349 56.797,22.406 56.367,22.137 56.846,22.305 56.486,21.948 56.915,22.218 56.646,21.79 57.003,22.148 
		56.835,21.67 57.104,22.099 57.046,21.596 57.213,22.074 	"/>
	<g>
		<g>
			<g>
				<polygon fill="#E5E5E5" points="59.113,23.808 59.029,23.97 59.251,23.856 				"/>
				<polygon fill="#E5E5E5" points="59.416,23.914 59.37,23.958 59.503,23.944 				"/>
				<polygon fill="#E5E5E5" points="59.295,24.033 59.168,24.159 59.242,24.147 59.503,24.056 				"/>
				<polygon fill="#E5E5E5" points="59.703,24.454 59.723,24.457 59.734,24.423 				"/>
				<polygon fill="#E5E5E5" points="59.527,23.835 59.508,23.822 59.498,23.832 				"/>
				<polygon fill="#E5E5E5" points="59.602,24.8 59.689,24.548 59.596,24.562 59.439,24.718 				"/>
				<polygon fill="#E5E5E5" points="59.546,23.704 59.296,23.454 59.217,23.607 59.523,23.715 				"/>
				<polygon fill="#E5E5E5" points="59.576,24.266 59.243,24.383 59.43,24.412 				"/>
				<polygon fill="#E5E5E5" points="59.506,24.576 59.241,24.617 59.423,24.709 				"/>
				<path fill="#E5E5E5" d="M56.062,18l-6,15l0.001,67h8.812l1.006-42.109L65,56l1-36C64.014,17.208,56.062,18,56.062,18z"/>
				<polygon fill="#E5E5E5" points="59.646,24.354 59.529,24.427 59.594,24.438 				"/>
				<polygon fill="#E5E5E5" points="59.835,24.472 59.834,24.474 59.835,24.475 				"/>
			</g>
		</g>
	</g>
	<line fill="#E5E5E5" x1="57.377" y1="22.782" x2="57.218" y2="22.624"/>
	<g>
		<g>
			<g>
				<polygon fill="#E5E5E5" points="45.692,24.084 46.207,23.673 46.063,23.315 				"/>
				<polygon fill="#E5E5E5" points="47.117,25.949 46.939,25.505 46.189,25.504 				"/>
				<polygon fill="#E5E5E5" points="46.279,23.854 45.916,24.308 46.373,24.087 				"/>
				<polygon fill="#E5E5E5" points="46.607,24.674 46.189,24.875 46.687,24.874 				"/>
				<path fill="#E5E5E5" d="M47.157,26.049l-1.073-0.246l1.121,0.891l-1.29-0.623l0.895,1.118l-1.118-0.895l0.623,1.29l-0.891-1.121
					l0.32,1.396l-0.62-1.291L45.127,28l-0.317-1.396L44.494,28l0.002-1.432l-0.62,1.291l0.32-1.396l-0.891,1.121l0.623-1.29
					l-1.118,0.895l0.895-1.118l-1.29,0.623l1.121-0.891l-1.396,0.32l1.291-0.62L42,25.506l1.396-0.317L42,24.873l1.432,0.002
					l-1.291-0.62l1.396,0.32l-1.121-0.891l1.29,0.623l-0.895-1.118l1.118,0.895l-0.623-1.29l0.891,1.121l-0.32-1.396l0.62,1.291
					l-0.002-1.432l0.317,1.396l0.317-1.396l-0.002,1.432l0.62-1.291l-0.32,1.396l0.585-0.736L43.938,18c0,0-7.951-0.793-9.938,2
					l1,36l5.119,1.891L41.125,100h8.812l0.001-67L47.157,26.049z"/>
				<polygon fill="#E5E5E5" points="46.872,25.336 46.764,25.067 46.225,25.189 				"/>
				<polygon fill="#E5E5E5" points="46.451,24.284 46.084,24.576 46.527,24.474 				"/>
			</g>
		</g>
	</g>
	<circle fill="#E5E5E5" cx="50" cy="22" r="1"/>
	<circle fill="#E5E5E5" cx="50" cy="25" r="1"/>
	<circle fill="#E5E5E5" cx="50" cy="28" r="1"/>
</g>
</svg>
