<?xml version="1.0" encoding="utf-8"?>
<!-- Generator: Adobe Illustrator 16.0.0, SVG Export Plug-In . SVG Version: 6.00 Build 0)  -->
<!DOCTYPE svg PUBLIC "-//W3C//DTD SVG 1.1//EN" "http://www.w3.org/Graphics/SVG/1.1/DTD/svg11.dtd">
<svg version="1.1" id="Layer_1" xmlns="http://www.w3.org/2000/svg" xmlns:xlink="http://www.w3.org/1999/xlink" x="0px" y="0px"
	 width="500px" height="375px" viewBox="0 0 500 375" enable-background="new 0 0 500 375" xml:space="preserve">
<rect fill="#F5F4F3" width="500" height="375"/>
<g>
	<line fill="none" stroke="#F406E5" stroke-width="2" stroke-miterlimit="10" x1="568.739" y1="88.597" x2="-2.291" y2="88.598"/>
	<line fill="none" stroke="#FFDE17" stroke-width="2" stroke-miterlimit="10" x1="504.267" y1="24.124" x2="-66.764" y2="24.124"/>
	<line fill="none" stroke="#33ACB5" stroke-width="2" stroke-miterlimit="10" x1="525.759" y1="45.616" x2="-45.273" y2="45.616"/>
	<line fill="none" stroke="#80DB2F" stroke-width="2" stroke-miterlimit="10" x1="547.248" y1="67.105" x2="-23.782" y2="67.106"/>
</g>
<g>
	<path fill="#80DB2F" d="M498,2v371H2V2H498 M500,0H0v375h500V0L500,0z"/>
</g>
<g id="Your_Icon">
	<path fill="#949494" d="M251.783,259.436c1.643-2.643,2.604-5.756,2.604-9.096c0-9.555-7.748-17.295-17.297-17.295
		c-9.551,0-17.287,7.74-17.287,17.295c0,1.359,0.162,2.682,0.465,3.953c-6.809-0.615-13.699-0.945-20.666-0.945
		c-10.801,0-21.422,0.783-31.826,2.254c-11.228-66.896,0.229-109.503,17.01-136.336c3.111,4.582,8.364,7.589,14.323,7.589
		c8.292,0,15.211-5.837,16.895-13.63c1.658,0.523,3.418,0.813,5.246,0.813c9.551,0,17.291-7.748,17.291-17.304
		c0-0.27-0.02-0.53-0.037-0.791c3.207,1.997,6.453,4.203,9.613,6.64c14.041,10.819,26.164,25.713,26.147,44.838
		c0,4.635-0.717,9.549-2.291,14.773c-0.332,1.108,0.265,2.285,1.343,2.671c0.248,0.09,0.504,0.129,0.744,0.129
		c0.854,0,1.653-0.508,1.993-1.338c0.052-0.141,7.095-17.014,7.103-37.117c0.006-14.051-3.496-29.851-15.57-42.232
		c-3.055-3.133-6.635-6.018-10.82-8.603c0.326-0.004,0.646-0.008,0.979-0.008c13.479-0.003,28.031,1.986,40.418,8.115
		c12.396,6.147,22.664,16.266,28.027,33.034c0.303,0.919,1.145,1.517,2.067,1.517c0.187,0,0.373-0.027,0.56-0.076
		c1.123-0.302,1.812-1.418,1.569-2.552c-0.039-0.137-3.709-17.465-14.407-34.973c-10.656-17.455-28.699-35.327-57.142-35.319
		c-12.486,0-26.857,3.458-43.365,11.689c-27.465-32.402-53.286-43.889-75.845-43.885c-47.762,0.228-78.556,50.347-80.691,53.736
		v0.004c-0.074,0.115-0.111,0.174-0.115,0.183c-0.587,0.994-0.3,2.275,0.676,2.916c0.961,0.639,2.262,0.405,2.949-0.526
		c14.626-19.887,33.665-26.452,53.186-26.493c18.546-0.007,37.399,6.124,52.292,12.768c-3.081-0.353-6.041-0.53-8.871-0.53
		c-29.382-0.046-45.342,18.205-53.434,35.959c-8.183,17.792-9.066,35.347-9.088,35.492c-0.056,1.155,0.798,2.155,1.954,2.275
		c0.071,0.009,0.148,0.012,0.219,0.012c1.064,0,1.983-0.78,2.154-1.851c3.122-20.331,15.491-31.642,30.491-38.262
		c14.985-6.562,32.496-8.032,44.822-8.024c1.437,0,2.8,0.019,4.086,0.057c-57.221,48.78-50.134,164.73-48.638,182.835
		c-50.234,15.856-92.873,48.789-121.091,92.022c6.159-1.797,12.665-2.805,19.339-2.805c10.411,0,20.384,2.412,29.25,6.457
		c8.664,3.965,18.359,6.285,28.396,6.285c10.097,0,19.788-2.32,28.444-6.285c8.808-4.053,18.812-6.457,29.242-6.457
		c10.385,0,20.397,2.412,29.25,6.457c8.623,3.965,18.258,6.285,28.366,6.285c10.102,0,19.764-2.32,28.479-6.285
		c8.828-4.053,18.842-6.457,29.162-6.457c10.434,0,20.428,2.412,29.283,6.457c8.594,3.965,18.377,6.285,28.358,6.285
		c10.103,0,19.732-2.32,28.479-6.285c8.822-4.053,18.812-6.457,29.178-6.457c3.984,0,7.9,0.359,11.719,1.023
		C356.299,307.254,308.127,272.791,251.783,259.436z"/>
</g>
</svg>
