<?xml version="1.0" encoding="utf-8"?>
<!-- Generator: Adobe Illustrator 16.0.0, SVG Export Plug-In . SVG Version: 6.00 Build 0)  -->
<!DOCTYPE svg PUBLIC "-//W3C//DTD SVG 1.1//EN" "http://www.w3.org/Graphics/SVG/1.1/DTD/svg11.dtd">
<svg version="1.1" id="Layer_1" xmlns="http://www.w3.org/2000/svg" xmlns:xlink="http://www.w3.org/1999/xlink" x="0px" y="0px"
	 width="500px" height="375px" viewBox="0 0 500 375" enable-background="new 0 0 500 375" xml:space="preserve">
<rect fill="#F5F4F3" width="500" height="375"/>
<g>
	<line fill="none" stroke="#F406E5" stroke-width="2" stroke-miterlimit="10" x1="567.739" y1="146.125" x2="-3.291" y2="146.124"/>
	
		<line fill="none" stroke="#FFDE17" stroke-width="2" stroke-miterlimit="10" x1="503.267" y1="210.598" x2="-67.764" y2="210.598"/>
	
		<line fill="none" stroke="#33ACB5" stroke-width="2" stroke-miterlimit="10" x1="524.759" y1="189.105" x2="-46.273" y2="189.105"/>
	
		<line fill="none" stroke="#80DB2F" stroke-width="2" stroke-miterlimit="10" x1="546.248" y1="167.617" x2="-24.782" y2="167.616"/>
</g>
<g>
	<path fill="#F406E5" d="M498,2v371H2V2H498 M500,0H0v375h500V0L500,0z"/>
</g>
<g id="XMLID_121_">
	<g id="XMLID_122_">
		<g id="XMLID_123_">
			<g>
				<g id="XMLID_127_">
					<g>
						<path fill="#949494" d="M396.726,119.427c0.201-31.351-15.094-49.844-28.471-59.921
							c-21.885-16.613-52.929-21.786-79.222-13.124c-26.951,8.966-65.398,58.101-65.398,58.101s-38.294-49.135-65.397-58.106
							c-26.189-8.661-57.338-3.49-79.223,13.125c-13.833,10.532-29.939,30.287-28.267,64.48
							c3.69,52.174,107.896,140.367,157.943,182.765c6.891,5.773,13.179,11.146,18.64,15.807c3.498-3.048,7.352-6.441,11.551-10.033
							c8.36-7.242,18.289-15.903,28.974-25.58c-33.48-32.061-60.025-64.377-62.002-91.58c-1.213-24.971,8.359-46.45,26.95-60.583
							c19.905-15.246,48.171-19.805,71.974-11.95c16.011,5.27,29.13,15.25,37.599,27.552c8.553-12.308,21.83-22.283,37.84-27.552
							C385.579,121.1,391.05,119.935,396.726,119.427z M387.405,152.962c-3.191,0.309-6.283,1.011-9.271,2.025
							c-15.35,5.067-37.232,33.032-37.232,33.032s-21.787-27.965-37.132-33.032c-14.94-5.016-32.619-2.025-45.082,7.446
							c-7.949,5.983-17.119,17.224-16.11,36.626c1.266,18.332,24.166,44.168,48.177,67.067c7.445,7.194,14.994,14.03,22.088,20.11
							c7.241,6.38,14.028,12.152,19.601,16.812c3.9,3.29,7.449,6.383,10.641,9.062c1.924-1.771,4.205-3.689,6.484-5.771
							c28.465-24.77,87.684-76.438,89.762-107.391c1.014-19.299-8.158-30.54-16.111-36.522c-1.82-1.413-3.697-2.583-5.777-3.693
							C408.474,153.772,397.64,151.696,387.405,152.962z M426.509,122.213c9.271,2.584,17.988,6.789,25.586,12.556
							c18.594,14.134,28.27,35.614,26.945,60.38c-2.883,41.742-59.926,94.783-113.164,141.283
							c-6.387,5.574-17.428,14.998-21.178,18.486c-4.512-4.003-17.322-15.449-25.273-22.188
							c-9.878-8.252-19.806-16.811-29.585-25.477c-10.439,9.479-20.916,18.693-31.354,27.762
							c-9.474,8.256-25.882,22.391-31.552,27.555c-6.589-5.981-25.684-22.944-37.536-33.029
							C110.065,262.377,25.165,185.731,21.012,125.808c-1.924-37.129,12.311-68.991,40.015-90.065
							c29.434-22.49,71.323-29.379,106.684-17.729c23.809,7.951,43.413,22.693,55.924,40.979
							c12.664-18.281,32.27-33.128,56.023-40.979c35.262-11.65,77.151-4.66,106.733,17.729
							C413.243,56.209,427.37,86.805,426.509,122.213z"/>
					</g>
				</g>
			</g>
		</g>
	</g>
</g>
</svg>
