<?xml version="1.0" encoding="utf-8"?>
<!-- Generator: Adobe Illustrator 16.0.0, SVG Export Plug-In . SVG Version: 6.00 Build 0)  -->
<!DOCTYPE svg PUBLIC "-//W3C//DTD SVG 1.1//EN" "http://www.w3.org/Graphics/SVG/1.1/DTD/svg11.dtd">
<svg version="1.1" id="Layer_1" xmlns="http://www.w3.org/2000/svg" xmlns:xlink="http://www.w3.org/1999/xlink" x="0px" y="0px"
	 width="500px" height="375px" viewBox="0 0 500 375" enable-background="new 0 0 500 375" xml:space="preserve">
<rect fill="#F5F4F3" width="500" height="375"/>
<g>
	<line fill="none" stroke="#F406E5" stroke-width="2" stroke-miterlimit="10" x1="89.249" y1="-125.251" x2="89.249" y2="445.777"/>
	<line fill="none" stroke="#FFDE17" stroke-width="2" stroke-miterlimit="10" x1="24.776" y1="-60.779" x2="24.776" y2="510.251"/>
	<line fill="none" stroke="#33ACB5" stroke-width="2" stroke-miterlimit="10" x1="46.269" y1="-82.271" x2="46.269" y2="488.761"/>
	<line fill="none" stroke="#80DB2F" stroke-width="2" stroke-miterlimit="10" x1="67.758" y1="-103.761" x2="67.758" y2="467.27"/>
</g>
<g>
	<path fill="#33ACB5" d="M498,2v371H2V2H498 M500,0H0v375h500V0L500,0z"/>
</g>
<path fill="#949494" d="M160.598,67.892L136.551,74v46.353l24.047-6.207V67.892z M234.12,298.078l1.934,0.525l3.256,0.922
	l47.338,13.402V118.906l-52.529-14.583L234.12,298.078L234.12,298.078z M337.342,79.683L234.576,49.067l-0.456,0.132V95.39
	l109,30.286V81.395l-2.4-0.725L337.342,79.683z M295.255,315.355l47.864,13.533V255.83l-47.864-24.639V315.355z M169.202,111.907
	l62.455-16.095V49.823L169.202,65.69V111.907z M136.551,323.633l89.686-24.178l3.284-0.885l2.136-0.557V104.686l-95.105,24.54
	V323.633L136.551,323.633z M295.255,221.5l47.864,24.672V134.577l-47.864-13.272V221.5z M345.581,81.259v44.314l107.428-28.779
	V51.56L350.908,79.815l-3.422,0.921L345.581,81.259z M344.366,56.125l-109.261-32.52L112.012,54.912v300.783l120.628-32.518
	l112.94,31.898c0,0,109.728-29.139,119.908-31.768c10.153-2.627,12.089-5.354,12.089-15.709c0-5.121,0-288.295,0-288.295
	L344.366,56.125z M465.289,310.656l-119.607,31.703l-109.727-31.01l-3.249-0.922l-3.285,0.887l-105.123,28.354V64.439
	l110.543-28.086l106.013,31.539l3.387,1.016l3.385-0.921L465.29,35.432L465.289,310.656L465.289,310.656z M345.581,329.584
	l0.204,0.031l81.667-21.617v-73.225l-81.871,21.482V329.584z M345.581,247.355l107.428-28.188V105.702l-107.428,28.778V247.355z
	 M436.021,305.697l16.982-4.5v-73.16l-16.982,4.469V305.697z"/>
</svg>
