<?xml version="1.0" encoding="utf-8"?>
<!-- Generator: Adobe Illustrator 16.0.0, SVG Export Plug-In . SVG Version: 6.00 Build 0)  -->
<!DOCTYPE svg PUBLIC "-//W3C//DTD SVG 1.1//EN" "http://www.w3.org/Graphics/SVG/1.1/DTD/svg11.dtd">
<svg version="1.1" id="Layer_1" xmlns="http://www.w3.org/2000/svg" xmlns:xlink="http://www.w3.org/1999/xlink" x="0px" y="0px"
	 width="50.4px" height="50.4px" viewBox="0 0 50.4 50.4" enable-background="new 0 0 50.4 50.4" xml:space="preserve">
<path fill="#E5E5E5" d="M35.194,23.959c-1.905,0-3.457-1.55-3.457-3.457c0-1.914,1.552-3.462,3.457-3.462
	c1.916,0,3.463,1.548,3.463,3.462C38.657,22.41,37.11,23.959,35.194,23.959z"/>
<path fill="#E5E5E5" d="M13.965,12.402c2.644,0,3.718,2.176,4.11,3.376l3.246,10.667c0.649,2.297-2.271,3.245-2.965,1.01
	l-2.92-9.795h-0.854l5.062,17.422h-4.663v13.586c0,2.317-3.484,2.31-3.484,0V34.992h-1.42L10.08,48.65c0,2.334-3.499,2.334-3.499,0
	V35.081H1.906l5.02-17.422H6.141l-2.921,9.83c-0.695,2.142-3.643,1.263-2.969-1.033l3.243-10.677
	c0.351-1.217,1.411-3.376,4.078-3.376L13.965,12.402L13.965,12.402z"/>
<circle fill="#E5E5E5" cx="10.788" cy="7.817" r="3.785"/>
<path fill="#E5E5E5" d="M47.822,46.528h-7.551c0,0,2.532-9.965,2.4-15.347c-0.064-2.809-0.938-4.62-0.938-4.62
	s-1.562-3.86-5.398-1.716l-5.478,3.766l-2.811-4.271c-1.229-1.93-3.803-0.35-2.642,1.645l3.326,5.428c0,0,1.034,1.812,3.03,0.522
	l3.108-1.816l0.037,5.705h-5.527c-1.15,0-2.089,1.021-2.089,2.18V48.26c0,1.156,0.938,2.093,2.089,2.093
	c1.156,0,2.094-0.937,2.094-2.093v-8.164l7.644,0.011l-0.176,0.835h-3.266l0.002,7.162c0.005,1.148,0.986,2.252,2.138,2.252
	l10.097-0.003c1.15,0,2.106-0.682,2.106-1.833C50.025,47.219,48.977,46.528,47.822,46.528z"/>
<g>
	<path fill="#E5E5E5" d="M22.481,25.057c-0.172,0-0.34-0.091-0.438-0.246c-0.144-0.242-0.063-0.557,0.174-0.7l1.674-1.006
		c0.239-0.146,0.553-0.069,0.696,0.173c0.146,0.241,0.067,0.554-0.173,0.699l-1.671,1.006
		C22.661,25.032,22.571,25.057,22.481,25.057L22.481,25.057z"/>
	<path fill="#E5E5E5" d="M23.537,22.548c-0.019,0-0.038-0.001-0.056-0.002l-2.083-0.223c-0.279-0.03-0.481-0.281-0.451-0.56
		c0.03-0.279,0.271-0.487,0.559-0.452l2.084,0.222c0.278,0.031,0.48,0.281,0.451,0.559C24.014,22.353,23.792,22.548,23.537,22.548
		L23.537,22.548z"/>
	<path fill="#E5E5E5" d="M25.618,21.406c-0.077,0-0.154-0.018-0.226-0.055c-0.251-0.124-0.354-0.432-0.229-0.683l0.883-1.775
		c0.125-0.252,0.429-0.355,0.685-0.23c0.25,0.124,0.353,0.429,0.229,0.68l-0.882,1.778C25.986,21.301,25.805,21.406,25.618,21.406
		L25.618,21.406z"/>
	<path fill="#E5E5E5" d="M26.709,22.634c-0.178,0-0.348-0.092-0.44-0.257c-0.142-0.244-0.057-0.552,0.188-0.69l1.661-0.949
		c0.24-0.144,0.553-0.057,0.692,0.188c0.139,0.244,0.056,0.558-0.189,0.693l-1.659,0.949C26.882,22.612,26.794,22.634,26.709,22.634
		L26.709,22.634z"/>
	<path fill="#E5E5E5" d="M23.96,20.983c-0.178,0-0.35-0.092-0.441-0.257l-0.895-1.579c-0.138-0.245-0.051-0.559,0.193-0.694
		c0.247-0.139,0.555-0.051,0.69,0.193l0.894,1.578c0.138,0.247,0.052,0.557-0.192,0.691C24.131,20.962,24.044,20.983,23.96,20.983
		L23.96,20.983z"/>
</g>
</svg>
