<?xml version="1.0" encoding="utf-8"?>
<!-- Generator: Adobe Illustrator 16.0.0, SVG Export Plug-In . SVG Version: 6.00 Build 0)  -->
<!DOCTYPE svg PUBLIC "-//W3C//DTD SVG 1.1//EN" "http://www.w3.org/Graphics/SVG/1.1/DTD/svg11.dtd">
<svg version="1.1" id="Layer_1" xmlns="http://www.w3.org/2000/svg" xmlns:xlink="http://www.w3.org/1999/xlink" x="0px" y="0px"
	 width="576px" height="72px" viewBox="0 0 576 72" enable-background="new 0 0 576 72" xml:space="preserve">
<g>
	<path d="M36.124,35.54v15.985h1.496v0.798h-9.045v-0.798h1.479V18.152h-1.479V17.36h10.611c0.753,0,3.451-0.153,4.988,0.822
		c1.677,1.058,2.151,2.495,2.151,4.282v8.296c0,0.87-0.209,2.419-1.852,3.526c-1.584,1.039-4.176,1.253-6.309,1.253H36.124z
		 M40.264,20.456c0-0.674,0.033-1.215-0.364-1.698c-0.447-0.511-1.068-0.605-1.956-0.605h-1.82v16.622h2.191
		c0.694,0,1.238-0.231,1.624-0.665c0.433-0.526,0.325-1.339,0.325-1.772V20.456z"/>
	<path d="M91.895,47.455c0,3.158-2.07,5.172-7.632,5.164c-5.957,0-7.577-2.006-7.577-5.164V26.323c0-3.74,2.63-5.675,7.745-5.702
		c4.91-0.014,7.463,2.434,7.463,5.702V47.455z M86.438,23.643c0-1.774-0.665-2.468-2.007-2.446c-1.456,0-2.267,0.64-2.267,2.446
		v26.003c0,1.326,0.423,2.333,2.068,2.333c1.622,0,2.206-0.647,2.206-2.333V23.643z"/>
	<polygon points="140.435,20.877 140.435,27.209 139.614,27.209 139.614,22.268 134.964,22.268 134.964,51.605 136.32,51.605 
		136.32,52.323 128.177,52.323 128.177,51.605 129.501,51.605 129.501,22.268 124.889,22.268 124.889,27.209 124.076,27.209 
		124.076,20.877 	"/>
	<polygon points="188.96,20.877 188.96,27.209 188.146,27.209 188.146,22.268 183.505,22.268 183.505,51.605 184.845,51.605 
		184.845,52.323 176.725,52.323 176.725,51.605 178.027,51.605 178.027,22.268 173.417,22.268 173.417,27.209 172.594,27.209 
		172.594,20.877 	"/>
	<polygon points="227.784,35.597 233.813,35.597 233.813,32.863 234.645,32.863 234.645,39.767 233.813,39.767 233.813,37.006 
		227.784,37.006 227.784,50.914 233.813,50.914 233.813,46.168 234.645,46.168 234.645,52.323 220.958,52.323 220.958,51.605 
		222.328,51.605 222.328,21.579 220.958,21.579 220.958,20.877 234.645,20.877 234.645,27.007 233.813,27.007 233.813,22.268 
		227.784,22.268 	"/>
	<path d="M278.835,36.207c0,0.189,2.032,0.366,3.403,1.284c1.423,0.969,1.564,1.984,1.564,3.384v10.73h1.337v0.718h-6.805V39.751
		c0-0.972,0.216-1.947-0.738-2.521c-0.58-0.388-1.698-0.317-2.341-0.317h-1.843v14.692h1.327v0.718h-8.132v-0.718h1.327V21.579
		h-1.327v-0.702h9.541c0.67,0,3.105-0.151,4.491,0.736c1.509,0.97,1.935,2.239,1.935,3.834v6.704c0,0.327,0.108,1.831-1.113,2.876
		C280.342,36.02,278.835,36.069,278.835,36.207 M277.113,23.643c0-0.598,0.098-1.047-0.338-1.527
		c-0.466-0.476-1.143-0.537-1.68-0.537h-1.683v14.658h1.98c0.615,0,1.116-0.217,1.453-0.613c0.393-0.467,0.268-1.187,0.268-1.584
		V23.643z"/>
	<polygon points="320.213,41.092 314.53,21.579 313.147,21.579 313.147,20.877 321.296,20.877 321.296,21.579 319.979,21.579 
		324.784,38.131 329.051,21.579 327.696,21.579 327.696,20.877 332.136,20.877 332.136,21.579 330.814,21.579 325.69,41.148 
		325.69,51.605 327.001,51.605 327.001,52.323 318.865,52.323 318.865,51.605 320.213,51.605 	"/>
	<path d="M383.133,39.362v7.862c0,1.351-0.063,2.32-1.025,3.389c-1.317,1.418-4.062,1.71-5.254,1.71h-13.155v-0.798h1.461V18.152
		h-1.461V17.36h12.551c1.564,0,2.745,0.279,3.917,1.162c1.941,1.469,1.748,3.277,1.748,3.3v8.38c0,0.039,0.085,1.718-1.167,2.741
		c-1.614,1.344-2.851,1.406-2.828,1.561c0,0.237,2.247,0.217,3.846,1.571C382.729,36.914,383.133,37.762,383.133,39.362
		 M371.231,51.525h3.259c0.109,0,1.223,0,1.759-0.428c0.582-0.484,0.791-1.021,0.791-1.707V37.036c0-0.519-0.028-0.961-0.357-1.341
		c-0.366-0.426-0.97-0.547-1.686-0.547h-3.766V51.525z M371.231,18.152v16.044h3.181c0.109,0,0.779,0.039,1.172-0.39
		c0.351-0.399,0.26-0.979,0.26-1.279V20.23c0-0.118,0.073-1.278-0.26-1.673c-0.32-0.404-1.71-0.404-1.753-0.404H371.231z"/>
	<path d="M423.658,21.579h-1.364v-0.702h8.412v0.702h-1.516l5.472,30.026h1.341v0.718h-8.231v-0.718h1.146l-1.324-8.789h-6.678
		l-1.803,8.789h1.345v0.718h-4.286v-0.718h1.191L423.658,21.579z M421.109,41.625h6.201l-2.908-17.1L421.109,41.625z"/>
	<path d="M480.179,36.207c0,0.189,2.02,0.366,3.42,1.284c1.403,0.969,1.537,1.984,1.537,3.384v10.73h1.336v0.718h-6.81V39.751
		c0-0.972,0.222-1.947-0.736-2.521c-0.578-0.388-1.707-0.317-2.321-0.317h-1.841v14.692h1.321v0.718h-8.148v-0.718h1.344V21.579
		h-1.344v-0.702h9.549c0.66,0,3.108-0.151,4.497,0.736c1.503,0.97,1.938,2.239,1.938,3.834v6.704c0,0.327,0.09,1.831-1.114,2.876
		C481.672,36.02,480.179,36.069,480.179,36.207 M478.451,23.643c0-0.598,0.095-1.047-0.333-1.527
		c-0.462-0.476-1.145-0.537-1.693-0.537h-1.661v14.658h1.957c0.632,0,1.12-0.217,1.463-0.613c0.398-0.467,0.268-1.187,0.268-1.584
		V23.643z"/>
	<polygon points="528.102,52.323 521.465,26.199 521.465,51.605 522.82,51.605 522.82,52.323 518.538,52.323 518.538,51.605 
		519.858,51.605 519.858,21.579 518.538,21.579 518.538,20.877 525.352,20.877 532.258,48.116 532.258,21.579 530.928,21.579 
		530.928,20.877 535.212,20.877 535.212,21.579 533.852,21.579 533.852,52.323 	"/>
	<path d="M544.549,29.964c-2.385,0-4.256-1.534-4.256-4.443c0-2.909,1.871-4.444,4.256-4.444c2.38,0,4.247,1.535,4.247,4.444
		C548.796,28.43,546.929,29.964,544.549,29.964 M544.539,21.473c-2.156,0-3.801,1.398-3.801,4.047c0,2.688,1.645,4.049,3.801,4.049
		c2.164,0,3.816-1.362,3.816-4.049C548.355,22.871,546.703,21.473,544.539,21.473 M546,27.899l-1.509-2.092H543.5v2.092h-0.422
		v-4.73h1.547c0.853,0,1.521,0.446,1.521,1.326c0,0.756-0.506,1.176-1.198,1.261l1.559,2.144H546z M544.625,23.552H543.5v0.731
		v1.139h1.125c0.755,0,1.1-0.42,1.1-0.928C545.725,24.022,545.39,23.552,544.625,23.552"/>
</g>
</svg>
