<?xml version="1.0" encoding="utf-8"?>
<!-- Generator: Adobe Illustrator 16.0.0, SVG Export Plug-In . SVG Version: 6.00 Build 0)  -->
<!DOCTYPE svg PUBLIC "-//W3C//DTD SVG 1.1//EN" "http://www.w3.org/Graphics/SVG/1.1/DTD/svg11.dtd">
<svg version="1.1" id="Layer_1" xmlns="http://www.w3.org/2000/svg" xmlns:xlink="http://www.w3.org/1999/xlink" x="0px" y="0px"
	 width="500px" height="375px" viewBox="0 0 500 375" enable-background="new 0 0 500 375" xml:space="preserve">
<rect fill="#F5F4F3" width="500" height="375"/>
<g>
	<line fill="none" stroke="#F406E5" stroke-width="2" stroke-miterlimit="10" x1="21.982" y1="390" x2="411.942" y2="0.039"/>
	<line fill="none" stroke="#FFDE17" stroke-width="2" stroke-miterlimit="10" x1="110.039" y1="390" x2="500" y2="0.039"/>
	<line fill="none" stroke="#33ACB5" stroke-width="2" stroke-miterlimit="10" x1="80.686" y1="390" x2="470.647" y2="0.039"/>
	<line fill="none" stroke="#80DB2F" stroke-width="2" stroke-miterlimit="10" x1="51.335" y1="390" x2="441.295" y2="0.039"/>
</g>
<path id="plane" fill="#949494" d="M353.579,146.306l-66.854-0.185l-35.612-56.61c10.446-1.695,31.323-9.15,31.341-20.02
	c0.02-12.469-27.104-20.562-34.969-20.583l-21.975-0.059L200.509,9.124l-48.65-0.136l13.988,39.679l-1.983-0.007l-0.112,40.958
	l16.548,0.049l19.831,56.256l-80.551,9.871L72.496,107.47L45.1,107.41l31.78,54.85l-0.127,44.058l-32.082,54.644l27.378,0.063
	l50.382-51.045l77.44,13.402l-20.158,56.137l-16.549-0.034l-0.084,40.947l1.957,0.014l-14.209,39.604l48.669,0.147l25.192-39.574
	l21.961,0.071c7.864,0.021,35.063-7.952,35.1-20.404c0.217-10.724-20.802-18.483-31.213-20.219l35.984-56.466l66.873,0.197
	c22.788,0.055,101.976-14.863,101.935-38.483C455.4,161.82,376.382,146.376,353.579,146.306z"/>
<g>
	<path fill="#F406E5" d="M498,2v371H2V2H498 M500,0H0v375h500V0L500,0z"/>
</g>
</svg>
