<?xml version="1.0" encoding="utf-8"?>
<!-- Generator: Adobe Illustrator 16.0.0, SVG Export Plug-In . SVG Version: 6.00 Build 0)  -->
<!DOCTYPE svg PUBLIC "-//W3C//DTD SVG 1.1//EN" "http://www.w3.org/Graphics/SVG/1.1/DTD/svg11.dtd">
<svg version="1.1" id="Layer_1" xmlns="http://www.w3.org/2000/svg" xmlns:xlink="http://www.w3.org/1999/xlink" x="0px" y="0px"
	 width="40.2px" height="30px" viewBox="0 0 40.2 30" style="enable-background:new 0 0 40.2 30;" xml:space="preserve">
<style type="text/css">
<![CDATA[
	.st0{fill:#FFDE11;}
]]>
</style>
<path class="st0" d="M1.7,12.3c0,0,2-7.9,9.9-10.8c7.9-2.9,14.2,5.4,11.7,13.2l4.1,2.1c0,0,3.1-10.3-7.4-16c0,0-9.2-4.7-17.4,7.6
	C2.1,9.2-5.1,22.9,6.9,28.7c9.8,4.7,17.8-5.2,18-5.9l-3.9-2.1c0,0-6.1,7.1-11.6,6.2C4.7,26.3-0.9,23.2,1.7,12.3z"/>
<path class="st0" d="M21.8,5"/>
<path class="st0" d="M6,12.9C6.4,11.5,10.8,0.5,21.8,5c0,0-4-6.9-12.7-1.8C0.4,8.2,1.2,17.7,1.5,19.5s1.7,6,7.6,7.2
	C9,26.7,2.8,23.6,6,12.9z"/>
<path class="st0" d="M23.3,8.7c0,0-5.5-2-7.4-0.7c0,0-1.5,2,9.1,7.8c10.7,5.8,14,3.5,14,3.5c1.2-1.2-4.9-5.5-7.3-6.8
	c-1.9-1-2.7-1.4-3.8-1.9l-0.1-0.4c0,0,6.8,3,9.3,5.4c0,0,2.9,2.2,3.1,3.8c0.3,1.6-1.8,5.5-4.3,5.8c0,0-5.7,0.1-10.2-2.2
	c0,0-10.7-4.6-12.7-9.5c-0.7-1.6,1.3-5.6,2.2-6c0.8-0.4,1.9-1,8.2,0.9L23.3,8.7z"/>
<path class="st0" d="M23.4,13.3c0,0,0.6-2.4,0-4.4c0,0-5.8-1.8-7.3-0.7c-0.8,0.6,3.2,3.9,3.2,3.9S21.8,12.5,23.4,13.3z"/>
<path class="st0" d="M28,15.2c0,0,0.2-2,0-4.3c0,0,8.5,3.8,11,7.8c0.6,1-4.1,0.8-4.7,0.4C34.2,19.1,30.5,16.5,28,15.2z"/>
</svg>
