<?xml version="1.0" encoding="utf-8"?>
<!-- Generator: Adobe Illustrator 16.0.0, SVG Export Plug-In . SVG Version: 6.00 Build 0)  -->
<!DOCTYPE svg PUBLIC "-//W3C//DTD SVG 1.1//EN" "http://www.w3.org/Graphics/SVG/1.1/DTD/svg11.dtd">
<svg version="1.1" id="Layer_1" xmlns="http://www.w3.org/2000/svg" xmlns:xlink="http://www.w3.org/1999/xlink" x="0px" y="0px"
	 width="40.195px" height="29.991px" viewBox="0 0 40.195 29.991" enable-background="new 0 0 40.195 29.991" xml:space="preserve">
<path fill="#FFDE11" d="M1.716,12.312c0,0,2.001-7.862,9.927-10.773c7.879-2.895,14.231,5.387,11.698,13.186l4.144,2.13
	c0,0,3.093-10.331-7.36-15.959c0,0-9.166-4.744-17.448,7.598c-0.563,0.724-7.815,14.4,4.221,20.221
	c9.809,4.744,17.769-5.226,17.97-5.91l-3.937-2.051c0,0-6.084,7.107-11.621,6.232C4.729,26.263-0.857,23.167,1.716,12.312z"/>
<path fill="#FFDE11" d="M21.834,4.976"/>
<path fill="#FFDE11" d="M5.988,12.863c0.401-1.34,4.784-12.41,15.846-7.886c0,0-4.04-6.895-12.724-1.829
	C0.427,8.213,1.166,17.669,1.472,19.51c0.307,1.839,1.729,6.03,7.558,7.236C9.03,26.746,2.767,23.615,5.988,12.863z"/>
<path fill="#FFDE11" d="M23.302,8.696c0,0-5.468-2.01-7.438-0.684c0,0-1.528,2.01,9.126,7.758c10.653,5.75,13.99,3.498,13.99,3.498
	c1.246-1.166-4.865-5.467-7.304-6.78c-1.902-1.024-2.667-1.42-3.833-1.903l-0.12-0.442c0,0,6.821,3.042,9.3,5.36
	c0,0,2.895,2.185,3.149,3.833c0.255,1.648-1.755,5.481-4.328,5.844c0,0-5.722,0.093-10.211-2.226c0,0-10.665-4.581-12.744-9.474
	c-0.684-1.608,1.298-5.575,2.171-5.99c0.847-0.403,1.933-0.965,8.16,0.884L23.302,8.696z"/>
<path fill="#FFDE11" d="M23.422,13.318c0,0,0.563-2.412,0-4.421c0,0-5.763-1.834-7.317-0.724c-0.844,0.603,3.216,3.859,3.216,3.859
	S21.769,12.53,23.422,13.318z"/>
<path fill="#FFDE11" d="M27.965,15.208c0,0,0.241-2.05-0.041-4.342c0,0,8.466,3.849,10.975,7.839c0.606,0.964-4.135,0.763-4.7,0.442
	C34.2,19.147,30.458,16.455,27.965,15.208z"/>
</svg>
